# Blender v2.82 (sub 7) OBJ File: 'bag.blend'
# www.blender.org
mtllib bag_3d.mtl
v 0.029617 0.303283 0.000000
v 0.207771 0.303283 0.000000
v 0.207771 0.428283 0.000000
v 0.564081 0.303283 0.000000
v 0.564081 0.178283 0.000000
v 0.564081 -0.071717 0.000000
v -0.148538 0.303283 0.000000
v -0.148538 0.178283 0.000000
v -0.326693 0.053283 0.000000
v -0.148538 0.053283 0.000000
v -0.504848 0.178283 0.000000
v 0.564081 -0.196717 0.000000
v 0.385926 -0.196717 0.000000
v -0.326693 0.178283 0.000000
v -0.504848 0.303283 0.000000
v 0.385926 -0.071717 0.000000
v 0.385926 0.428283 0.000000
v 0.385926 0.303283 0.000000
v 0.385926 -0.321717 0.000000
v 0.207771 -0.321717 0.000000
v -0.326693 0.303283 0.000000
v -0.504848 -0.196717 0.000000
v -0.504848 -0.071717 0.000000
v -0.326693 -0.071717 0.000000
v -0.326693 -0.196717 0.000000
v -0.148538 -0.071717 0.000000
v 0.029617 -0.196717 0.000000
v 0.029617 -0.071717 0.000000
v -0.326693 -0.321717 0.000000
v 0.385926 0.053283 0.000000
v 0.385926 0.178283 0.000000
v 0.207771 0.178283 0.000000
v 0.207771 -0.196717 0.000000
v 0.207771 -0.071717 0.000000
v 0.029617 0.178283 0.000000
v 0.029617 0.053283 0.000000
v 0.029617 -0.321717 0.000000
v -0.148538 -0.321717 0.000000
v 0.029617 0.428283 0.000000
v -0.326693 0.428283 0.000000
v -0.148538 0.428283 0.000000
v 0.207771 0.053283 0.000000
v -0.148538 -0.196717 0.000000
v 0.207771 0.505676 0.000000
v 0.564081 0.332766 0.000000
v -0.617757 0.178283 0.000000
v -0.504848 0.338583 0.000000
v -0.448409 -0.282117 0.000000
v -0.377094 0.428283 0.000000
v -0.640835 0.082870 0.000000
v 0.073809 0.522276 0.000000
v 0.385926 -0.345922 0.000000
v 0.207771 -0.400756 0.000000
v -0.326693 -0.348474 0.000000
v 0.564081 -0.227847 0.000000
v 0.071204 -0.417538 0.000000
v -0.326693 0.453393 0.000000
v -0.618466 -0.071717 0.000000
v -0.590365 0.238286 0.000000
v 0.429554 0.428283 0.000000
v 0.385926 0.450841 0.000000
v 0.593529 0.303283 0.000000
v 0.292454 -0.381133 0.000000
v 0.594779 -0.196717 0.000000
v -0.447655 0.388154 0.000000
v -0.541070 0.303283 0.000000
v 0.692558 0.088139 0.000000
v -0.504848 -0.233664 0.000000
v 0.432402 -0.321717 0.000000
v -0.148538 0.507124 0.000000
v 0.670926 -0.071717 0.000000
v -0.542319 -0.196717 0.000000
v -0.148538 -0.402205 0.000000
v -0.234059 0.488288 0.000000
v 0.670216 0.178283 0.000000
v -0.645085 0.053283 0.000000
v -0.011227 -0.418059 0.000000
v 0.697430 0.053283 0.000000
v -0.641090 0.023876 0.000000
v 0.646016 -0.129205 0.000000
v 0.645178 0.235184 0.000000
v -0.013833 0.522798 0.000000
v -0.379942 -0.321717 0.000000
v -0.235587 -0.382794 0.000000
v 0.692814 0.018607 0.000000
v 0.290926 0.486628 0.000000
v -0.230671 -0.384646 0.000000
v -0.104737 -0.411569 0.000000
v 0.684645 -0.039841 0.000000
v 0.026230 0.525579 0.000000
v -0.104737 0.516488 0.000000
v 0.646443 0.233515 0.000000
v 0.157196 0.516488 0.000000
v 0.500920 0.387006 0.000000
v -0.593984 -0.128595 0.000000
v 0.684645 0.144761 0.000000
v 0.157197 -0.411569 0.000000
v 0.500921 -0.282086 0.000000
v 0.026230 -0.420659 0.000000
v -0.632186 0.144760 0.000000
v -0.632186 -0.039841 0.000000
v -0.420055 -0.012223 0.000000
v -0.456062 -0.037487 0.000000
v -0.420055 0.118789 0.000000
v -0.440749 0.133309 0.000000
v -0.420055 0.053283 0.000000
v -0.504848 -0.009472 0.000000
v -0.420055 -0.048693 0.000000
v -0.480134 -0.026628 0.000000
v -0.420055 0.139389 0.000000
v -0.520278 0.006395 0.000000
v -0.530816 0.025490 0.000000
v -0.534375 0.045348 0.000000
v -0.503165 0.101899 0.000000
v -0.480134 0.117324 0.000000
v -0.530816 0.065206 0.000000
v -0.520278 0.084301 0.000000
v 0.476851 0.053283 0.000000
v 0.476851 -0.010512 0.000000
v 0.499263 0.132805 0.000000
v 0.476851 0.117079 0.000000
v 0.577074 0.006395 0.000000
v 0.587612 0.025490 0.000000
v 0.591170 0.045348 0.000000
v 0.559961 0.101899 0.000000
v 0.536930 0.117324 0.000000
v 0.476851 -0.048693 0.000000
v 0.508867 -0.039287 0.000000
v 0.587612 0.065206 0.000000
v 0.577074 0.084301 0.000000
v 0.536930 -0.026628 0.000000
v 0.559961 -0.011203 0.000000
v 0.476851 0.139389 0.000000
v 0.207771 0.505676 0.107510
v 0.564081 0.332766 0.107510
v -0.617757 0.178283 0.107510
v -0.504848 0.338583 0.107510
v -0.448409 -0.282117 0.107510
v -0.377094 0.428283 0.107510
v -0.640835 0.082870 0.107510
v 0.073809 0.522276 0.107510
v 0.385926 -0.345922 0.107510
v 0.207771 -0.400756 0.107510
v -0.326693 -0.348474 0.107510
v 0.564081 -0.227847 0.107510
v 0.071204 -0.417538 0.107510
v -0.326693 0.453393 0.107510
v -0.618466 -0.071717 0.107510
v -0.590365 0.238286 0.107510
v 0.429554 0.428283 0.107510
v 0.385926 0.450841 0.107510
v 0.593529 0.303283 0.107510
v 0.292454 -0.381133 0.107510
v 0.594779 -0.196717 0.107510
v -0.447655 0.388154 0.107510
v -0.541070 0.303283 0.107510
v 0.692558 0.088139 0.107510
v -0.504848 -0.233664 0.107510
v 0.432402 -0.321717 0.107510
v -0.148538 0.507124 0.107510
v 0.670926 -0.071717 0.107510
v -0.542319 -0.196717 0.107510
v -0.148538 -0.402205 0.107510
v -0.234059 0.488288 0.107510
v 0.670216 0.178283 0.107510
v -0.645085 0.053283 0.107510
v -0.011227 -0.418059 0.107510
v 0.697430 0.053283 0.107510
v -0.641090 0.023876 0.107510
v 0.646016 -0.129205 0.107510
v 0.645178 0.235184 0.107510
v -0.013833 0.522798 0.107510
v -0.379942 -0.321717 0.107510
v -0.235587 -0.382794 0.107510
v 0.692814 0.018607 0.107510
v 0.290926 0.486628 0.107510
v -0.230671 -0.384646 0.107510
v -0.104737 -0.411569 0.107510
v 0.684645 -0.039841 0.107510
v 0.026230 0.525579 0.107510
v -0.104737 0.516488 0.107510
v 0.646443 0.233515 0.107510
v 0.157196 0.516488 0.107510
v 0.500920 0.387006 0.107510
v -0.593984 -0.128595 0.107510
v 0.684645 0.144761 0.107510
v 0.157197 -0.411569 0.107510
v 0.500921 -0.282086 0.107510
v 0.026230 -0.420659 0.107510
v -0.632186 0.144760 0.107510
v -0.632186 -0.039841 0.107510
vt 0.250000 0.500000
vt 0.250000 0.625000
vt 0.125000 0.625000
vt 0.250000 0.375000
vt 0.375000 0.375000
vt 0.500000 0.250000
vt 0.500000 0.375000
vt 0.750000 0.750000
vt 0.781130 0.875000
vt 0.750000 0.875000
vt 0.413894 0.184494
vt 0.434494 0.184494
vt 0.375000 0.250000
vt 0.625000 0.750000
vt 0.625000 0.875000
vt 0.250000 0.750000
vt 0.166278 0.830684
vt 0.125000 0.780610
vt 0.875000 0.750000
vt 0.875000 0.625000
vt 0.250000 0.250000
vt 0.214701 0.125000
vt 0.250000 0.125000
vt 0.625000 0.250000
vt 0.750000 0.250000
vt 0.625000 0.375000
vt 0.750000 0.500000
vt 0.625000 0.500000
vt 0.500000 0.750000
vt 0.375000 0.750000
vt 0.375000 0.625000
vt 0.750000 0.625000
vt 0.625000 0.625000
vt 0.375000 0.500000
vt 0.500000 0.500000
vt 0.875000 0.500000
vt 0.875000 0.375000
vt 0.750000 0.125000
vt 0.625000 0.125000
vt 0.250000 0.875000
vt 0.375000 0.875000
vt 0.875000 0.212638
vt 0.875000 0.250000
vt 0.500000 0.625000
vt 0.125000 0.500000
vt 0.750000 0.375000
vt 0.125000 0.250000
vt 0.125000 0.375000
vt 0.375000 0.125000
vt 0.835369 0.830685
vt 0.875000 0.782609
vt 0.899205 0.750000
vt 0.970821 0.529179
vt 0.936077 0.313923
vt 0.125000 0.214637
vt 0.165129 0.165129
vt 0.099891 0.250000
vt 0.125000 0.750000
vt 0.066655 0.683345
vt 0.786947 0.125000
vt 0.835400 0.164600
vt 0.750000 0.098709
vt 0.314998 0.064998
vt 0.250000 0.895661
vt 0.220518 0.875000
vt 0.682488 0.932488
vt 0.500000 0.184494
vt 0.565506 0.184494
vt 0.601977 0.184494
vt 0.413894 0.813796
vt 0.500000 0.813796
vt 0.436204 0.813796
vt 0.937929 0.317373
vt 0.046160 0.375000
vt 0.064995 0.314995
vt 0.625000 0.949966
vt 0.964852 0.405732
vt 0.955488 0.375000
vt 0.681879 0.062459
vt 0.250000 0.099586
vt 0.593124 0.959592
vt 0.901757 0.250000
vt 0.375000 0.045779
vt 0.047608 0.625000
vt 0.036795 0.405732
vt 0.030486 0.469514
vt 0.319768 0.932788
vt 0.375000 0.949468
vt 0.036795 0.589514
vt 0.500000 0.026605
vt 0.507935 0.104283
vt 0.488077 0.106780
vt 0.625000 0.045281
vt 0.408522 0.959592
vt 0.465144 0.965144
vt 0.934417 0.684417
vt 0.954040 0.625000
vt 0.750000 0.896539
vt 0.318100 0.931900
vt 0.964852 0.589515
vt 0.102442 0.750000
vt 0.408523 0.035655
vt 0.593125 0.035655
vt 0.529407 0.029407
vt 0.579912 0.142340
vt 0.590770 0.159230
vt 0.507935 0.894007
vt 0.527793 0.891510
vt 0.534677 0.965323
vt 0.563796 0.813796
vt 0.419974 0.169974
vt 0.971343 0.471343
vt 0.973943 0.497624
vt 0.420479 0.829521
vt 0.031007 0.531007
vt 0.562756 0.125000
vt 0.546889 0.114174
vt 0.527793 0.106780
vt 0.470413 0.029587
vt 0.451384 0.126181
vt 0.468982 0.114174
vt 0.435959 0.142340
vt 0.027705 0.497624
vt 0.601977 0.813796
vt 0.546888 0.884116
vt 0.500000 0.968562
vt 0.564487 0.872109
vt 0.488077 0.891510
vt 0.451384 0.872109
vt 0.435959 0.855950
vt 0.468982 0.884116
vt 0.592570 0.836260
vt 0.579912 0.855950
vt 0.408522 0.959592
vt 0.375000 0.949468
vt 0.964852 0.405732
vt 0.971343 0.471343
vt 0.465144 0.965144
vt 0.955488 0.375000
vt 0.102442 0.750000
vt 0.066655 0.683345
vt 0.214701 0.125000
vt 0.250000 0.099586
vt 0.934417 0.684417
vt 0.899205 0.750000
vt 0.593124 0.959592
vt 0.534677 0.965323
vt 0.064995 0.314995
vt 0.099891 0.250000
vt 0.625000 0.949966
vt 0.954040 0.625000
vt 0.500000 0.968562
vt 0.781130 0.875000
vt 0.750000 0.896539
vt 0.250000 0.895661
vt 0.220518 0.875000
vt 0.165129 0.165129
vt 0.875000 0.782609
vt 0.318100 0.931900
vt 0.835400 0.164600
vt 0.875000 0.212638
vt 0.901757 0.250000
vt 0.964852 0.589515
vt 0.314998 0.064998
vt 0.375000 0.045779
vt 0.970821 0.529179
vt 0.047608 0.625000
vt 0.166278 0.830684
vt 0.125000 0.214637
vt 0.835369 0.830685
vt 0.027705 0.497624
vt 0.030486 0.469514
vt 0.036795 0.405732
vt 0.046160 0.375000
vt 0.031007 0.531007
vt 0.973943 0.497624
vt 0.319768 0.932788
vt 0.937929 0.317373
vt 0.125000 0.780610
vt 0.036795 0.589514
vt 0.936077 0.313923
vt 0.408523 0.035655
vt 0.470413 0.029587
vt 0.682488 0.932488
vt 0.593125 0.035655
vt 0.625000 0.045281
vt 0.500000 0.026605
vt 0.529407 0.029407
vt 0.750000 0.098709
vt 0.786947 0.125000
vt 0.681879 0.062459
vn 0.0000 -0.0000 1.0000
vn -0.4887 0.5236 0.6979
vn -0.4205 -0.5928 0.6869
vn -0.3420 -0.6249 0.7018
vn 0.4829 -0.5253 0.7006
vn 0.3390 0.6279 0.7006
vn -0.4205 0.5928 0.6869
vn -0.3428 0.6241 0.7022
vn -0.2938 0.6575 0.6939
vn -0.0490 0.7054 0.7071
vn 0.2493 0.6617 0.7071
vn 0.3354 -0.6294 0.7010
vn 0.4204 -0.5943 0.6856
vn 0.2871 -0.6583 0.6958
vn -0.2082 -0.6910 0.6922
vn 0.4840 0.5259 0.6994
vn 0.4204 0.5928 0.6869
vn 0.5429 0.4768 0.6913
vn 0.6269 -0.3746 0.6831
vn -0.5441 -0.4742 0.6921
vn -0.4865 -0.5246 0.6986
vn -0.6321 0.3695 0.6811
vn 0.2036 0.6939 0.6907
vn 0.1501 -0.6917 0.7064
vn 0.2056 -0.6927 0.6913
vn -0.6494 0.2805 0.7068
vn 0.1008 0.7153 0.6916
vn 0.1478 0.6915 0.7071
vn 0.6328 0.3688 0.6809
vn 0.5420 -0.4788 0.6907
vn -0.7077 0.1979 0.6783
vn 0.2884 0.6582 0.6954
vn 0.6486 -0.2876 0.7047
vn -0.1532 -0.6920 0.7055
vn 0.1008 -0.7153 0.6916
vn 0.0490 -0.7054 0.7071
vn -0.6328 -0.3688 0.6809
vn -0.6495 -0.2796 0.7071
vn -0.1008 -0.7153 0.6916
vn 0.7358 -0.0028 0.6772
vn 0.6495 0.2796 0.7071
vn -0.7077 -0.1979 0.6783
vn -0.7003 -0.0979 0.7071
vn -0.2090 0.6905 0.6925
vn -0.1541 0.6921 0.7052
vn -0.5450 0.4721 0.6929
vn -0.5634 -0.4273 0.7071
vn -0.1008 0.7153 0.6916
vn -0.2927 -0.6576 0.6942
vn 0.7077 -0.1979 0.6783
vn 0.7077 0.1979 0.6783
vn 0.7009 0.0966 0.7067
vn -0.7013 0.0957 0.7064
vn 0.0490 0.7054 0.7071
vn -0.0000 0.7220 0.6918
vn -0.0490 -0.7054 0.7071
vn 0.6997 -0.0991 0.7075
vn 0.0000 -0.7220 0.6918
vn -0.7351 -0.0024 0.6779
vn -0.9631 -0.2693 0.0000
vn -0.9185 -0.3954 0.0000
vn 0.1395 0.9902 0.0000
vn 0.0692 0.9976 0.0000
vn -0.9904 -0.1384 0.0000
vn 0.2091 0.9779 0.0000
vn -0.4066 -0.9136 0.0000
vn -0.2886 -0.9575 0.0000
vn 0.6767 -0.7362 0.0000
vn 0.7494 -0.6621 0.0000
vn -0.2898 0.9571 0.0000
vn -0.4080 0.9130 0.0000
vn -0.9631 0.2693 0.0000
vn -0.9908 0.1352 0.0000
vn 0.2845 -0.9587 0.0000
vn 0.3997 -0.9166 0.0000
vn -0.9180 0.3965 0.0000
vn -0.2174 0.9761 0.0000
vn -1.0000 -0.0033 0.0000
vn -0.6824 0.7310 0.0000
vn -0.7559 0.6547 0.0000
vn -0.7539 -0.6570 0.0000
vn -0.6800 -0.7332 0.0000
vn 0.5775 -0.8164 0.0000
vn -0.4814 0.8765 0.0000
vn -0.7968 -0.6043 0.0000
vn 0.5785 0.8157 0.0000
vn 0.4750 0.8800 0.0000
vn 0.4013 0.9159 0.0000
vn -0.1395 0.9902 0.0000
vn 0.8584 -0.5129 0.0000
vn 0.9142 -0.4053 0.0000
vn -0.0692 0.9976 0.0000
vn -0.2162 -0.9764 0.0000
vn -0.5786 -0.8156 0.0000
vn 0.4703 -0.8825 0.0000
vn -0.5786 0.8156 0.0000
vn 0.0000 -1.0000 0.0000
vn 0.0692 -0.9976 0.0000
vn 0.1395 -0.9902 0.0000
vn 0.2121 -0.9773 0.0000
vn -0.0692 -0.9976 0.0000
vn -0.0000 1.0000 0.0000
vn -0.8640 -0.5035 0.0000
vn 0.2816 0.9595 0.0000
vn -0.4801 -0.8772 0.0000
vn -0.1395 -0.9902 0.0000
vn 0.3525 0.9358 0.0000
vn 0.9631 -0.2693 0.0000
vn 0.9901 -0.1403 0.0000
vn -0.8633 0.5047 0.0000
vn 0.9631 0.2693 0.0000
vn 0.9185 0.3954 0.0000
vn 1.0000 -0.0038 0.0000
vn 0.9906 0.1365 0.0000
vn 0.7514 0.6599 0.0000
vn 0.6771 0.7358 0.0000
vn 0.8640 0.5035 0.0000
usemtl Default_OBJ.002
s 1
f 1/1/1 2/2/1 3/3/1
f 1/1/1 7/4/1 8/5/1
f 9/6/1 10/7/1 8/5/1
f 13/8/1 55/9/2 12/10/1
f 110/11/1 104/12/1 14/13/1
f 16/14/1 13/8/1 6/15/1
f 18/16/1 94/17/3 60/18/4
f 19/19/1 13/8/1 20/20/1
f 21/21/1 47/22/5 15/23/1
f 24/24/1 25/25/1 26/26/1
f 27/27/1 28/28/1 26/26/1
f 30/29/1 31/30/1 32/31/1
f 9/6/1 24/24/1 26/26/1
f 27/27/1 33/32/1 34/33/1
f 35/34/1 36/35/1 32/31/1
f 28/28/1 36/35/1 26/26/1
f 37/36/1 27/27/1 38/37/1
f 33/32/1 13/8/1 34/33/1
f 22/38/1 25/25/1 23/39/1
f 4/40/1 18/16/1 5/41/1
f 10/7/1 36/35/1 8/5/1
f 31/30/1 18/16/1 32/31/1
f 1/1/1 35/34/1 32/31/1
f 25/25/1 83/42/6 29/43/1
f 42/44/1 36/35/1 34/33/1
f 7/4/1 21/21/1 8/5/1
f 39/45/1 1/1/1 3/3/1
f 43/46/1 25/25/1 38/37/1
f 2/2/1 18/16/1 3/3/1
f 40/47/1 21/21/1 41/48/1
f 14/13/1 21/21/1 11/49/1
f 98/50/7 13/8/1 69/51/8
f 19/19/1 52/52/9 69/51/8
f 21/21/1 7/4/1 41/48/1
f 7/4/1 1/1/1 41/48/1
f 1/1/1 39/45/1 41/48/1
f 56/53/10 20/20/1 37/36/1
f 36/35/1 35/34/1 8/5/1
f 35/34/1 1/1/1 8/5/1
f 25/25/1 29/43/1 38/37/1
f 29/43/1 84/54/11 38/37/1
f 18/16/1 2/2/1 32/31/1
f 2/2/1 1/1/1 32/31/1
f 21/21/1 49/55/12 65/56/13
f 40/47/1 57/57/14 49/55/12
f 18/16/1 17/58/1 3/3/1
f 17/58/1 86/59/15 3/3/1
f 25/25/1 68/60/16 48/61/17
f 22/38/1 72/62/18 68/60/16
f 21/21/1 15/23/1 11/49/1
f 15/23/1 59/63/19 11/49/1
f 4/40/1 62/64/20 45/65/21
f 13/8/1 12/10/1 6/15/1
f 12/10/1 80/66/22 6/15/1
f 13/8/1 16/14/1 34/33/1
f 16/14/1 30/29/1 34/33/1
f 21/21/1 14/13/1 8/5/1
f 14/13/1 9/6/1 8/5/1
f 25/25/1 43/46/1 26/26/1
f 43/46/1 27/27/1 26/26/1
f 27/27/1 43/46/1 38/37/1
f 36/35/1 28/28/1 34/33/1
f 28/28/1 27/27/1 34/33/1
f 27/27/1 37/36/1 20/20/1
f 13/8/1 33/32/1 20/20/1
f 33/32/1 27/27/1 20/20/1
f 36/35/1 10/7/1 26/26/1
f 10/7/1 9/6/1 26/26/1
f 9/6/1 106/67/1 102/68/1
f 25/25/1 24/24/1 23/39/1
f 24/24/1 108/69/1 23/39/1
f 36/35/1 42/44/1 32/31/1
f 42/44/1 30/29/1 32/31/1
f 30/29/1 42/44/1 34/33/1
f 18/16/1 31/30/1 5/41/1
f 31/30/1 133/70/1 5/41/1
f 30/29/1 118/71/1 121/72/1
f 87/73/23 38/37/1 84/54/11
f 70/74/24 74/75/25 41/48/1
f 80/66/22 71/76/26 6/15/1
f 88/77/27 38/37/1 73/78/28
f 95/79/29 72/62/18 22/38/1 23/39/1
f 47/22/5 66/80/30 15/23/1
f 89/81/31 6/15/1 71/76/26
f 83/42/6 54/82/32 29/43/1
f 59/63/19 46/83/33 11/49/1
f 86/59/15 44/84/34 3/3/1
f 91/85/35 41/48/1 82/86/36
f 92/87/37 5/41/1 75/88/38
f 93/89/39 3/3/1 44/84/34
f 76/90/40 113/91/1 116/92/1
f 95/79/29 23/39/1 58/93/41
f 96/94/42 5/41/1 67/95/43
f 63/96/44 19/19/1 20/20/1
f 74/75/25 40/47/1 41/48/1
f 53/97/45 63/96/44 20/20/1
f 55/9/2 64/98/46 12/10/1
f 81/99/47 4/40/1 5/41/1
f 97/100/48 20/20/1 56/53/10
f 60/18/4 61/101/49 17/58/1
f 100/102/50 11/49/1 46/83/33
f 101/103/51 23/39/1 79/104/52
f 82/86/36 41/48/1 39/45/1
f 109/105/1 23/39/1 103/106/1
f 104/12/1 106/67/1 9/6/1
f 124/107/1 123/108/1 85/109/53
f 119/110/1 118/71/1 30/29/1
f 18/16/1 45/65/21 94/17/3
f 104/12/1 9/6/1 14/13/1
f 14/13/1 11/49/1 110/11/1
f 11/49/1 105/111/1 110/11/1
f 60/18/4 17/58/1 18/16/1
f 21/21/1 65/56/13 47/22/5
f 25/25/1 48/61/17 83/42/6
f 13/8/1 19/19/1 69/51/8
f 38/37/1 77/112/54 37/36/1
f 77/112/54 99/113/55 37/36/1
f 99/113/55 56/53/10 37/36/1
f 29/43/1 54/82/32 84/54/11
f 21/21/1 40/47/1 49/55/12
f 17/58/1 61/101/49 86/59/15
f 25/25/1 22/38/1 68/60/16
f 15/23/1 66/80/30 59/63/19
f 18/16/1 4/40/1 45/65/21
f 12/10/1 64/98/46 80/66/22
f 24/24/1 9/6/1 102/68/1
f 108/69/1 103/106/1 23/39/1
f 24/24/1 102/68/1 108/69/1
f 31/30/1 30/29/1 121/72/1
f 133/70/1 120/114/1 5/41/1
f 31/30/1 121/72/1 133/70/1
f 87/73/23 73/78/28 38/37/1
f 88/77/27 77/112/54 38/37/1
f 13/8/1 98/50/7 55/9/2
f 89/81/31 85/109/53 6/15/1
f 91/85/35 70/74/24 41/48/1
f 92/87/37 81/99/47 5/41/1
f 93/89/39 51/115/56 3/3/1
f 23/39/1 107/116/1 111/117/1
f 23/39/1 111/117/1 79/104/52
f 111/117/1 112/118/1 79/104/52
f 76/90/40 79/104/52 113/91/1
f 11/49/1 50/119/57 114/120/1
f 50/119/57 76/90/40 116/92/1
f 114/120/1 50/119/57 117/121/1
f 115/122/1 105/111/1 11/49/1
f 114/120/1 115/122/1 11/49/1
f 79/104/52 112/118/1 113/91/1
f 117/121/1 50/119/57 116/92/1
f 96/94/42 75/88/38 5/41/1
f 63/96/44 52/52/9 19/19/1
f 74/75/25 57/57/14 40/47/1
f 81/99/47 62/64/20 4/40/1
f 97/100/48 53/97/45 20/20/1
f 100/102/50 50/119/57 11/49/1
f 101/103/51 58/93/41 23/39/1
f 3/3/1 51/115/56 39/45/1
f 51/115/56 90/123/58 39/45/1
f 90/123/58 82/86/36 39/45/1
f 109/105/1 107/116/1 23/39/1
f 127/124/1 119/110/1 16/14/1
f 119/110/1 30/29/1 16/14/1
f 6/15/1 85/109/53 122/125/1
f 85/109/53 78/126/59 124/107/1
f 6/15/1 122/125/1 132/127/1
f 78/126/59 67/95/43 129/128/1
f 67/95/43 5/41/1 125/129/1
f 5/41/1 120/114/1 126/130/1
f 5/41/1 126/130/1 125/129/1
f 127/124/1 16/14/1 6/15/1
f 67/95/43 125/129/1 130/131/1
f 67/95/43 130/131/1 129/128/1
f 128/132/1 127/124/1 6/15/1
f 131/133/1 128/132/1 6/15/1
f 78/126/59 129/128/1 124/107/1
f 131/133/1 6/15/1 132/127/1
f 122/125/1 85/109/53 123/108/1
f 75/88/38 96/94/42 186/134/60 165/135/61
f 77/112/54 88/77/27 178/136/62 167/137/63
f 96/94/42 67/95/43 157/138/64 186/134/60
f 88/77/27 73/78/28 163/139/65 178/136/62
f 86/59/15 61/101/49 151/140/66 176/141/67
f 66/80/30 47/22/5 137/142/68 156/143/69
f 52/52/9 63/96/44 153/144/70 142/145/71
f 85/109/53 89/81/31 179/146/72 175/147/73
f 57/57/14 74/75/25 164/148/74 147/149/75
f 89/81/31 71/76/26 161/150/76 179/146/72
f 63/96/44 53/97/45 143/151/77 153/144/70
f 78/126/59 85/109/53 175/147/73 168/152/78
f 64/98/46 55/9/2 145/153/79 154/154/80
f 45/65/21 62/64/20 152/155/81 135/156/82
f 47/22/5 65/56/13 155/157/83 137/142/68
f 69/51/8 52/52/9 142/145/71 159/158/84
f 62/64/20 81/99/47 171/159/85 152/155/81
f 83/42/6 48/61/17 138/160/86 173/161/87
f 67/95/43 78/126/59 168/152/78 157/138/64
f 54/82/32 83/42/6 173/161/87 144/162/88
f 53/97/45 97/100/48 187/163/89 143/151/77
f 46/83/33 59/63/19 149/164/90 136/165/91
f 97/100/48 56/53/10 146/166/92 187/163/89
f 44/84/34 86/59/15 176/141/67 134/167/93
f 94/17/3 45/65/21 135/156/82 184/168/94
f 59/63/19 66/80/30 156/143/69 149/164/90
f 49/55/12 57/57/14 147/149/75 139/169/95
f 65/56/13 49/55/12 139/169/95 155/157/83
f 55/9/2 98/50/7 188/170/96 145/153/79
f 82/86/36 90/123/58 180/171/97 172/172/98
f 98/50/7 69/51/8 159/158/84 188/170/96
f 70/74/24 91/85/35 181/173/99 160/174/100
f 90/123/58 51/115/56 141/175/101 180/171/97
f 91/85/35 82/86/36 172/172/98 181/173/99
f 56/53/10 99/113/55 189/176/102 146/166/92
f 81/99/47 92/87/37 182/177/103 171/159/85
f 99/113/55 77/112/54 167/137/63 189/176/102
f 92/87/37 75/88/38 165/135/61 182/177/103
f 73/78/28 87/73/23 177/178/104 163/139/65
f 61/101/49 60/18/4 150/179/105 151/140/66
f 51/115/56 93/89/39 183/180/106 141/175/101
f 87/73/23 84/54/11 174/181/107 177/178/104
f 50/119/57 100/102/50 190/182/108 140/183/109
f 93/89/39 44/84/34 134/167/93 183/180/106
f 74/75/25 70/74/24 160/174/100 164/148/74
f 100/102/50 46/83/33 136/165/91 190/182/108
f 60/18/4 94/17/3 184/168/94 150/179/105
f 71/76/26 80/66/22 170/184/110 161/150/76
f 58/93/41 101/103/51 191/185/111 148/186/112
f 76/90/40 50/119/57 140/183/109 166/187/113
f 79/104/52 76/90/40 166/187/113 169/188/114
f 101/103/51 79/104/52 169/188/114 191/185/111
f 68/60/16 72/62/18 162/189/115 158/190/116
f 80/66/22 64/98/46 154/154/80 170/184/110
f 72/62/18 95/79/29 185/191/117 162/189/115
f 48/61/17 68/60/16 158/190/116 138/160/86
f 95/79/29 58/93/41 148/186/112 185/191/117
f 84/54/11 54/82/32 144/162/88 174/181/107
