# Blender v2.82 (sub 7) OBJ File: ''
# www.blender.org
mtllib crewneck.mtl
v -0.163469 0.888342 0.000000
v -0.000000 0.888342 -0.000000
v 0.163469 0.888342 -0.000000
v 0.490408 0.234465 -0.000000
v 0.490408 0.070996 -0.000000
v -0.490408 0.070996 0.000000
v -0.490408 0.234465 0.000000
v 0.163469 0.724873 -0.000000
v -0.000000 0.724873 0.000000
v -0.163469 0.724873 0.000000
v 0.163469 0.561404 -0.000000
v -0.000000 0.561404 0.000000
v -0.163469 0.561404 0.000000
v 0.163469 0.397934 -0.000000
v -0.000000 0.397934 0.000000
v -0.163469 0.397934 0.000000
v 0.326939 0.234465 -0.000000
v 0.163469 0.234465 -0.000000
v -0.000000 0.234465 0.000000
v -0.163469 0.234465 0.000000
v -0.326939 0.234465 0.000000
v 0.326939 0.070996 -0.000000
v -0.326939 0.070996 0.000000
v -0.245204 0.888342 0.000000
v -0.081735 0.888342 0.000000
v 0.081735 0.888342 -0.000000
v 0.245204 0.888342 -0.000000
v 0.490408 0.316200 -0.000000
v 0.490408 0.152730 -0.000000
v -0.490408 0.152730 0.000000
v -0.490408 0.316200 0.000000
v 0.245204 0.724873 -0.000000
v 0.081735 0.724873 -0.000000
v -0.081735 0.724873 0.000000
v -0.245204 0.724873 0.000000
v 0.245204 0.561404 -0.000000
v 0.081735 0.561404 -0.000000
v -0.081735 0.561404 0.000000
v -0.245204 0.561404 0.000000
v 0.245204 0.397934 -0.000000
v 0.081735 0.397934 -0.000000
v -0.081735 0.397934 0.000000
v -0.245204 0.397934 0.000000
v -0.408673 0.234465 0.000000
v 0.408673 0.234465 -0.000000
v 0.245204 0.234465 -0.000000
v 0.081735 0.234465 -0.000000
v -0.081735 0.234465 0.000000
v -0.245204 0.234465 0.000000
v -0.408673 0.070996 0.000000
v 0.408673 0.070996 -0.000000
v 0.245204 0.070996 -0.000000
v -0.245204 0.070996 0.000000
v 0.163469 0.806608 -0.000000
v -0.000000 0.806608 0.000000
v -0.163469 0.806608 0.000000
v 0.163469 0.643138 -0.000000
v -0.000000 0.643138 0.000000
v -0.163469 0.643138 0.000000
v 0.163469 0.479669 -0.000000
v -0.000000 0.479669 0.000000
v -0.163469 0.479669 0.000000
v 0.326939 0.316200 -0.000000
v 0.163469 0.316200 -0.000000
v -0.000000 0.316200 0.000000
v -0.163469 0.316200 0.000000
v -0.326939 0.316200 0.000000
v 0.326939 0.152730 -0.000000
v 0.163469 0.152730 -0.000000
v -0.163469 0.152730 0.000000
v -0.326939 0.152730 0.000000
v -0.245204 0.152730 0.000000
v 0.245204 0.152730 -0.000000
v 0.408673 0.152730 -0.000000
v -0.245204 0.316200 0.000000
v -0.081735 0.316200 0.000000
v 0.081735 0.316200 -0.000000
v 0.245204 0.316200 -0.000000
v 0.408673 0.316200 -0.000000
v -0.245204 0.479669 0.000000
v -0.081735 0.479669 0.000000
v 0.081735 0.479669 -0.000000
v 0.245204 0.479669 -0.000000
v -0.245204 0.643138 0.000000
v -0.081735 0.643138 0.000000
v 0.081735 0.643138 -0.000000
v 0.245204 0.643138 -0.000000
v -0.245204 0.806608 0.000000
v -0.081735 0.806608 0.000000
v 0.081735 0.806608 -0.000000
v 0.245204 0.806608 -0.000000
v -0.408673 0.152730 0.000000
v -0.408673 0.316200 0.000000
v 0.081735 0.164972 -0.000000
v -0.102732 0.152730 0.000000
v -0.103973 0.152730 0.000000
v -0.163469 0.084546 0.000000
v 0.060521 0.173944 -0.000000
v -0.170713 0.070996 0.000000
v 0.089712 0.160708 -0.000000
v -0.081735 0.164972 0.000000
v 0.000000 0.184912 0.000000
v 0.170713 0.070996 -0.000000
v -0.089712 0.160708 0.000000
v -0.029297 0.182027 0.000000
v -0.135593 0.124854 0.000000
v 0.163469 0.084547 -0.000000
v 0.102732 0.152730 -0.000000
v -0.070763 0.170837 0.000000
v -0.036075 0.181359 0.000000
v -0.130753 0.130753 0.000000
v -0.153749 0.102732 0.000000
v 0.070763 0.170837 -0.000000
v 0.130753 0.130753 -0.000000
v 0.153749 0.102732 -0.000000
v 0.036074 0.181359 -0.000000
vt 0.666667 0.916667
vt 0.583333 1.000000
vt 0.583333 0.916667
vt 0.833333 0.916667
vt 0.750000 1.000000
vt 0.750000 0.916667
vt 0.166667 0.250000
vt 0.083333 0.333333
vt 0.083333 0.250000
vt 0.166667 0.416667
vt 0.083333 0.500000
vt 0.083333 0.416667
vt 0.166667 0.583333
vt 0.083333 0.666667
vt 0.083333 0.583333
vt 0.333333 0.250000
vt 0.250000 0.333333
vt 0.250000 0.250000
vt 0.333333 0.416667
vt 0.250000 0.500000
vt 0.250000 0.416667
vt 0.250000 0.583333
vt 0.333333 0.666667
vt 0.250000 0.666667
vt 0.500000 0.250000
vt 0.416667 0.333333
vt 0.416667 0.250000
vt 0.500000 0.416667
vt 0.416667 0.500000
vt 0.416667 0.416667
vt 0.416667 0.583333
vt 0.500000 0.666667
vt 0.416667 0.666667
vt 0.666667 0.083333
vt 0.583333 0.166667
vt 0.583333 0.083333
vt 0.583333 0.250000
vt 0.666667 0.333333
vt 0.583333 0.333333
vt 0.666667 0.416667
vt 0.583333 0.500000
vt 0.583333 0.416667
vt 0.666667 0.583333
vt 0.583333 0.666667
vt 0.583333 0.583333
vt 0.666667 0.750000
vt 0.583333 0.833333
vt 0.583333 0.750000
vt 0.833333 0.083333
vt 0.750000 0.166667
vt 0.750000 0.083333
vt 0.833333 0.250000
vt 0.750000 0.333333
vt 0.750000 0.250000
vt 0.750000 0.750000
vt 0.833333 0.833333
vt 0.750000 0.833333
vt 0.666667 0.833333
vt 0.750000 0.666667
vt 0.666667 0.666667
vt 0.833333 0.750000
vt 0.741866 0.408533
vt 0.666667 0.250000
vt 0.666667 0.166667
vt 0.833333 0.166667
vt 0.750000 0.000000
vt 0.666667 0.000000
vt 0.833333 0.000000
vt 0.500000 0.750000
vt 0.500000 0.583333
vt 0.500000 0.500000
vt 0.666667 0.500000
vt 0.500000 0.333333
vt 0.583333 0.000000
vt 0.333333 0.750000
vt 0.416667 0.750000
vt 0.333333 0.583333
vt 0.333333 0.500000
vt 0.333333 0.333333
vt 0.166667 0.750000
vt 0.166667 0.666667
vt 0.250000 0.750000
vt 0.166667 0.500000
vt 0.166667 0.333333
vt 0.000000 0.750000
vt 0.000000 0.666667
vt 0.083333 0.750000
vt 0.000000 0.583333
vt 0.000000 0.500000
vt 0.000000 0.416667
vt 0.000000 0.333333
vt 0.000000 0.250000
vt 0.666667 1.000000
vt 0.833333 1.000000
vt 0.819517 0.333333
vt 0.819518 0.666667
vt 0.750000 0.395259
vt 0.720811 0.536780
vt 0.731540 0.572147
vt 0.741866 0.591467
vt 0.737519 0.583333
vt 0.750000 0.606007
vt 0.772407 0.633310
vt 0.800976 0.656756
vt 0.778421 0.638245
vt 0.720130 0.529870
vt 0.717188 0.500000
vt 0.728372 0.438295
vt 0.800976 0.343244
vt 0.772407 0.366690
vt 0.720811 0.463220
vt 0.737519 0.416667
vt 0.833333 0.325948
vt 0.833333 0.674052
vt 0.750000 0.604741
vt 0.731539 0.427853
vn -0.0000 0.0000 -1.0000
usemtl None
s off
f 44/1/1 31/2/1 93/3/1
f 50/4/1 30/5/1 92/6/1
f 32/7/1 54/8/1 91/9/1
f 33/10/1 55/11/1 90/12/1
f 34/13/1 56/14/1 89/15/1
f 36/16/1 57/17/1 87/18/1
f 37/19/1 58/20/1 86/21/1
f 85/22/1 13/23/1 59/24/1
f 40/25/1 60/26/1 83/27/1
f 41/28/1 61/29/1 82/30/1
f 81/31/1 16/32/1 62/33/1
f 45/34/1 63/35/1 79/36/1
f 78/37/1 18/38/1 64/39/1
f 47/40/1 65/41/1 77/42/1
f 48/43/1 66/44/1 76/45/1
f 49/46/1 67/47/1 75/48/1
f 51/49/1 68/50/1 74/51/1
f 52/52/1 69/53/1 73/54/1
f 72/55/1 23/56/1 71/57/1
f 72/55/1 21/58/1 49/46/1
f 70/59/1 49/46/1 20/60/1
f 70/59/1 53/61/1 72/55/1
f 100/62/1 47/40/1 18/38/1
f 73/54/1 18/38/1 46/63/1
f 68/50/1 46/63/1 17/64/1
f 22/65/1 73/54/1 68/50/1
f 74/51/1 17/64/1 45/34/1
f 29/66/1 45/34/1 4/67/1
f 5/68/1 74/51/1 29/66/1
f 66/44/1 43/69/1 16/32/1
f 20/60/1 75/48/1 66/44/1
f 42/70/1 66/44/1 16/32/1
f 65/41/1 42/70/1 15/71/1
f 19/72/1 76/45/1 65/41/1
f 77/42/1 15/71/1 41/28/1
f 64/39/1 41/28/1 14/73/1
f 64/39/1 47/40/1 77/42/1
f 78/37/1 14/73/1 40/25/1
f 17/64/1 78/37/1 63/35/1
f 4/67/1 79/36/1 28/74/1
f 62/33/1 39/75/1 13/23/1
f 16/32/1 80/76/1 62/33/1
f 38/77/1 62/33/1 13/23/1
f 61/29/1 38/77/1 12/78/1
f 61/29/1 42/70/1 81/31/1
f 82/30/1 12/78/1 37/19/1
f 60/26/1 37/19/1 11/79/1
f 14/73/1 82/30/1 60/26/1
f 83/27/1 11/79/1 36/16/1
f 59/24/1 35/80/1 10/81/1
f 13/23/1 84/82/1 59/24/1
f 85/22/1 10/81/1 34/13/1
f 58/20/1 34/13/1 9/83/1
f 58/20/1 38/77/1 85/22/1
f 86/21/1 9/83/1 33/10/1
f 57/17/1 33/10/1 8/84/1
f 11/79/1 86/21/1 57/17/1
f 87/18/1 8/84/1 32/7/1
f 56/14/1 24/85/1 1/86/1
f 10/81/1 88/87/1 56/14/1
f 89/15/1 1/86/1 25/88/1
f 55/11/1 25/88/1 2/89/1
f 9/83/1 89/15/1 55/11/1
f 90/12/1 2/89/1 26/90/1
f 54/8/1 26/90/1 3/91/1
f 8/84/1 90/12/1 54/8/1
f 91/9/1 3/91/1 27/92/1
f 92/6/1 7/93/1 44/1/1
f 21/58/1 92/6/1 44/1/1
f 23/56/1 92/6/1 71/57/1
f 21/58/1 93/3/1 67/47/1
f 44/1/1 7/93/1 31/2/1
f 50/4/1 6/94/1 30/5/1
f 32/7/1 8/84/1 54/8/1
f 33/10/1 9/83/1 55/11/1
f 34/13/1 10/81/1 56/14/1
f 36/16/1 11/79/1 57/17/1
f 37/19/1 12/78/1 58/20/1
f 85/22/1 38/77/1 13/23/1
f 40/25/1 14/73/1 60/26/1
f 41/28/1 15/71/1 61/29/1
f 81/31/1 42/70/1 16/32/1
f 45/34/1 17/64/1 63/35/1
f 78/37/1 46/63/1 18/38/1
f 47/40/1 19/72/1 65/41/1
f 48/43/1 20/60/1 66/44/1
f 49/46/1 21/58/1 67/47/1
f 51/49/1 22/65/1 68/50/1
f 52/52/1 107/95/1 69/53/1
f 72/55/1 53/61/1 23/56/1
f 72/55/1 71/57/1 21/58/1
f 70/59/1 72/55/1 49/46/1
f 97/96/1 53/61/1 70/59/1
f 18/38/1 108/97/1 100/62/1
f 73/54/1 69/53/1 18/38/1
f 68/50/1 73/54/1 46/63/1
f 22/65/1 52/52/1 73/54/1
f 74/51/1 68/50/1 17/64/1
f 29/66/1 74/51/1 45/34/1
f 5/68/1 51/49/1 74/51/1
f 66/44/1 75/48/1 43/69/1
f 20/60/1 49/46/1 75/48/1
f 42/70/1 76/45/1 66/44/1
f 65/41/1 76/45/1 42/70/1
f 19/72/1 48/43/1 76/45/1
f 77/42/1 65/41/1 15/71/1
f 64/39/1 77/42/1 41/28/1
f 64/39/1 18/38/1 47/40/1
f 78/37/1 64/39/1 14/73/1
f 17/64/1 46/63/1 78/37/1
f 4/67/1 45/34/1 79/36/1
f 62/33/1 80/76/1 39/75/1
f 16/32/1 43/69/1 80/76/1
f 38/77/1 81/31/1 62/33/1
f 61/29/1 81/31/1 38/77/1
f 61/29/1 15/71/1 42/70/1
f 82/30/1 61/29/1 12/78/1
f 60/26/1 82/30/1 37/19/1
f 14/73/1 41/28/1 82/30/1
f 83/27/1 60/26/1 11/79/1
f 59/24/1 84/82/1 35/80/1
f 13/23/1 39/75/1 84/82/1
f 85/22/1 59/24/1 10/81/1
f 58/20/1 85/22/1 34/13/1
f 58/20/1 12/78/1 38/77/1
f 86/21/1 58/20/1 9/83/1
f 57/17/1 86/21/1 33/10/1
f 11/79/1 37/19/1 86/21/1
f 87/18/1 57/17/1 8/84/1
f 56/14/1 88/87/1 24/85/1
f 10/81/1 35/80/1 88/87/1
f 89/15/1 56/14/1 1/86/1
f 55/11/1 89/15/1 25/88/1
f 9/83/1 34/13/1 89/15/1
f 90/12/1 55/11/1 2/89/1
f 54/8/1 90/12/1 26/90/1
f 8/84/1 33/10/1 90/12/1
f 91/9/1 54/8/1 3/91/1
f 92/6/1 30/5/1 7/93/1
f 21/58/1 71/57/1 92/6/1
f 23/56/1 50/4/1 92/6/1
f 21/58/1 44/1/1 93/3/1
f 110/98/1 109/99/1 48/43/1
f 104/100/1 48/43/1 101/101/1
f 96/102/1 70/59/1 20/60/1
f 111/103/1 70/59/1 96/102/1
f 112/104/1 70/59/1 106/105/1
f 105/106/1 19/72/1 102/107/1
f 98/108/1 19/72/1 47/40/1
f 115/109/1 114/110/1 69/53/1
f 116/111/1 19/72/1 98/108/1
f 100/62/1 94/112/1 47/40/1
f 52/52/1 103/113/1 107/95/1
f 97/96/1 99/114/1 53/61/1
f 18/38/1 69/53/1 108/97/1
f 48/43/1 105/106/1 110/98/1
f 109/99/1 101/101/1 48/43/1
f 104/100/1 20/60/1 48/43/1
f 20/60/1 104/100/1 96/102/1
f 104/100/1 95/115/1 96/102/1
f 111/103/1 106/105/1 70/59/1
f 112/104/1 97/96/1 70/59/1
f 105/106/1 48/43/1 19/72/1
f 47/40/1 94/112/1 113/116/1
f 113/116/1 98/108/1 47/40/1
f 69/53/1 107/95/1 115/109/1
f 114/110/1 108/97/1 69/53/1
f 116/111/1 102/107/1 19/72/1
