# Blender v2.82 (sub 7) OBJ File: ''
# www.blender.org
mtllib cloth_lowpoly.mtl
v 0.000000 0.000000 -0.627991
v 0.125000 0.000000 -0.627991
v 0.125000 0.000000 -0.752991
v 0.500000 0.000000 -0.627991
v 0.375000 0.000000 -0.627991
v 0.375000 0.000000 -0.502991
v 0.500000 0.000000 -0.252991
v 0.500000 0.000000 -0.377991
v 0.375000 0.000000 -0.252991
v -0.125000 0.000000 -0.627991
v -0.125000 0.000000 -0.502991
v -0.250000 0.000000 -0.377991
v -0.125000 0.000000 -0.377991
v -0.500000 0.000000 -0.377991
v -0.375000 0.000000 -0.377991
v -0.375000 0.000000 -0.502991
v -0.500000 0.000000 -0.502991
v 0.375000 0.000000 -0.127991
v 0.250000 0.000000 -0.127991
v 0.375000 0.000000 -0.002991
v -0.250000 0.000000 -0.502991
v -0.500000 0.000000 -0.627991
v -0.375000 0.000000 -0.627991
v -0.375000 0.000000 -0.752991
v 0.500000 0.000000 -0.752991
v 0.500000 0.000000 -0.877991
v 0.375000 0.000000 -0.752991
v 0.250000 0.000000 -0.252991
v 0.250000 0.000000 -0.752991
v 0.250000 0.000000 -0.627991
v 0.500000 0.000000 0.122009
v 0.500000 0.000000 -0.002991
v 0.250000 0.000000 -0.002991
v 0.125000 0.000000 -0.002991
v -0.250000 0.000000 -0.627991
v -0.500000 0.000000 -0.127991
v -0.375000 0.000000 -0.127991
v -0.375000 0.000000 -0.252991
v -0.500000 0.000000 -0.752991
v -0.250000 0.000000 -0.252991
v -0.250000 0.000000 -0.127991
v -0.125000 0.000000 -0.252991
v 0.125000 0.000000 -0.877991
v 0.000000 0.000000 -0.877991
v 0.000000 0.000000 -0.127991
v 0.000000 0.000000 -0.252991
v -0.250000 0.000000 0.122009
v -0.250000 0.000000 -0.002991
v -0.375000 0.000000 -0.002991
v 0.250000 0.000000 -0.377991
v 0.250000 0.000000 -0.502991
v 0.125000 0.000000 -0.502991
v -0.375000 0.000000 0.122009
v -0.500000 0.000000 -0.002991
v -0.500000 0.000000 0.122009
v 0.250000 0.000000 -0.877991
v 0.125000 0.000000 -0.127991
v 0.125000 0.000000 -0.252991
v 0.500000 0.000000 -0.127991
v -0.375000 0.000000 -0.877991
v -0.500000 0.000000 -0.877991
v 0.000000 0.000000 -0.502991
v 0.000000 0.000000 -0.377991
v 0.000000 0.000000 -0.002991
v -0.125000 0.000000 -0.002991
v 0.000000 0.000000 0.122009
v 0.375000 0.000000 0.122009
v 0.125000 0.000000 0.122009
v 0.250000 0.000000 0.122009
v -0.500000 0.000000 -0.252991
v 0.500000 0.000000 -0.502991
v 0.375000 0.000000 -0.877991
v 0.000000 0.000000 -0.752991
v -0.250000 0.000000 -0.877991
v -0.250000 0.000000 -0.752991
v -0.125000 0.000000 -0.752991
v 0.125000 0.000000 -0.377991
v -0.125000 0.000000 -0.877991
v -0.125000 0.000000 -0.127991
v -0.125000 0.000000 0.122009
v 0.375000 0.000000 -0.377991
vt 0.250000 0.500000
vt 0.250000 0.625000
vt 0.125000 0.625000
vt 0.250000 1.000000
vt 0.250000 0.875000
vt 0.375000 0.875000
vt 0.625000 1.000000
vt 0.500000 1.000000
vt 0.625000 0.875000
vt 0.250000 0.375000
vt 0.375000 0.375000
vt 0.500000 0.250000
vt 0.500000 0.375000
vt 0.500000 0.000000
vt 0.500000 0.125000
vt 0.375000 0.125000
vt 0.375000 0.000000
vt 0.750000 0.875000
vt 0.750000 0.750000
vt 0.875000 0.875000
vt 0.375000 0.250000
vt 0.250000 0.000000
vt 0.250000 0.125000
vt 0.125000 0.125000
vt 0.125000 1.000000
vt 0.000000 1.000000
vt 0.125000 0.875000
vt 0.625000 0.750000
vt 0.125000 0.750000
vt 0.250000 0.750000
vt 1.000000 1.000000
vt 0.875000 1.000000
vt 0.875000 0.750000
vt 0.875000 0.625000
vt 0.250000 0.250000
vt 0.750000 0.000000
vt 0.750000 0.125000
vt 0.625000 0.125000
vt 0.125000 0.000000
vt 0.625000 0.250000
vt 0.750000 0.250000
vt 0.625000 0.375000
vt 0.000000 0.625000
vt 0.000000 0.500000
vt 1.000000 0.250000
vt 0.875000 0.250000
vt 0.875000 0.125000
vt 0.500000 0.750000
vt 0.375000 0.750000
vt 0.375000 0.625000
vt 1.000000 0.125000
vt 0.875000 0.000000
vt 1.000000 0.000000
vt 0.000000 0.750000
vt 0.750000 1.000000
vt 0.000000 0.125000
vt 0.000000 0.000000
vt 0.375000 0.500000
vt 0.500000 0.500000
vt 0.625000 0.500000
vt 0.875000 0.500000
vt 0.750000 0.500000
vt 0.875000 0.375000
vt 1.000000 0.500000
vt 1.000000 0.875000
vt 1.000000 0.625000
vt 1.000000 0.750000
vt 0.750000 0.625000
vt 0.625000 0.625000
vt 0.625000 0.000000
vt 0.375000 1.000000
vt 0.000000 0.875000
vt 0.125000 0.500000
vt 0.000000 0.250000
vt 0.125000 0.250000
vt 0.125000 0.375000
vt 0.500000 0.625000
vt 0.000000 0.375000
vt 0.750000 0.375000
vt 1.000000 0.375000
vt 0.500000 0.875000
vn 0.0000 1.0000 0.0000
usemtl Default_OBJ.002
s 1
f 1/1/1 2/2/1 3/3/1
f 4/4/1 5/5/1 6/6/1
f 7/7/1 8/8/1 9/9/1
f 1/1/1 10/10/1 11/11/1
f 12/12/1 13/13/1 11/11/1
f 14/14/1 15/15/1 16/16/1
f 17/17/1 14/14/1 16/16/1
f 18/18/1 19/19/1 20/20/1
f 12/12/1 21/21/1 16/16/1
f 22/22/1 23/23/1 24/24/1
f 25/25/1 26/26/1 27/27/1
f 28/28/1 19/19/1 9/9/1
f 29/29/1 30/30/1 27/27/1
f 31/31/1 32/32/1 20/20/1
f 33/33/1 19/19/1 34/34/1
f 23/23/1 35/35/1 24/24/1
f 36/36/1 37/37/1 38/38/1
f 39/39/1 22/22/1 24/24/1
f 40/40/1 41/41/1 42/42/1
f 43/43/1 44/44/1 3/3/1
f 47/45/1 48/46/1 49/47/1
f 50/48/1 51/49/1 52/50/1
f 53/51/1 47/45/1 49/47/1
f 54/52/1 55/53/1 49/47/1
f 50/48/1 28/28/1 9/9/1
f 12/12/1 40/40/1 42/42/1
f 56/54/1 29/29/1 27/27/1
f 59/55/1 18/18/1 20/20/1
f 60/56/1 61/57/1 24/24/1
f 62/58/1 63/59/1 52/50/1
f 46/60/1 63/59/1 42/42/1
f 64/61/1 45/62/1 65/63/1
f 66/64/1 64/61/1 65/63/1
f 67/65/1 31/31/1 20/20/1
f 68/66/1 69/67/1 34/34/1
f 57/68/1 19/19/1 58/69/1
f 70/70/1 36/36/1 38/38/1
f 37/37/1 41/41/1 38/38/1
f 71/71/1 4/4/1 6/6/1
f 5/5/1 30/30/1 6/6/1
f 13/13/1 63/59/1 11/11/1
f 15/15/1 12/12/1 16/16/1
f 51/49/1 30/30/1 52/50/1
f 32/32/1 59/55/1 20/20/1
f 1/1/1 62/58/1 52/50/1
f 72/72/1 56/54/1 27/27/1
f 44/44/1 73/73/1 3/3/1
f 48/46/1 41/41/1 49/47/1
f 74/74/1 75/75/1 76/76/1
f 77/77/1 63/59/1 58/69/1
f 10/10/1 35/35/1 11/11/1
f 78/78/1 74/74/1 76/76/1
f 44/44/1 78/78/1 76/76/1
f 73/73/1 1/1/1 3/3/1
f 79/79/1 41/41/1 65/63/1
f 2/2/1 30/30/1 3/3/1
f 80/80/1 66/64/1 65/63/1
f 75/75/1 35/35/1 76/76/1
f 69/67/1 67/65/1 20/20/1
f 21/21/1 35/35/1 16/16/1
f 19/19/1 33/33/1 20/20/1
f 33/33/1 69/67/1 20/20/1
f 69/67/1 33/33/1 34/34/1
f 35/35/1 10/10/1 76/76/1
f 10/10/1 1/1/1 76/76/1
f 1/1/1 73/73/1 76/76/1
f 73/73/1 44/44/1 76/76/1
f 63/59/1 62/58/1 11/11/1
f 62/58/1 1/1/1 11/11/1
f 41/41/1 48/46/1 65/63/1
f 48/46/1 47/45/1 65/63/1
f 30/30/1 2/2/1 52/50/1
f 2/2/1 1/1/1 52/50/1
f 35/35/1 75/75/1 24/24/1
f 75/75/1 74/74/1 24/24/1
f 30/30/1 29/29/1 3/3/1
f 29/29/1 56/54/1 3/3/1
f 41/41/1 37/37/1 49/47/1
f 37/37/1 36/36/1 49/47/1
f 35/35/1 23/23/1 16/16/1
f 23/23/1 22/22/1 16/16/1
f 30/30/1 5/5/1 27/27/1
f 5/5/1 4/4/1 27/27/1
f 19/19/1 18/18/1 9/9/1
f 18/18/1 59/55/1 9/9/1
f 19/19/1 28/28/1 58/69/1
f 28/28/1 50/48/1 58/69/1
f 35/35/1 21/21/1 11/11/1
f 21/21/1 12/12/1 11/11/1
f 41/41/1 79/79/1 42/42/1
f 45/62/1 79/79/1 65/63/1
f 74/74/1 60/56/1 24/24/1
f 47/45/1 80/80/1 65/63/1
f 56/54/1 43/43/1 3/3/1
f 66/64/1 68/66/1 34/34/1
f 63/59/1 46/60/1 58/69/1
f 45/62/1 64/61/1 34/34/1
f 64/61/1 66/64/1 34/34/1
f 19/19/1 57/68/1 34/34/1
f 57/68/1 45/62/1 34/34/1
f 63/59/1 13/13/1 42/42/1
f 13/13/1 12/12/1 42/42/1
f 12/12/1 15/15/1 38/38/1
f 15/15/1 14/14/1 38/38/1
f 41/41/1 40/40/1 38/38/1
f 40/40/1 12/12/1 38/38/1
f 63/59/1 77/77/1 52/50/1
f 77/77/1 50/48/1 52/50/1
f 50/48/1 77/77/1 58/69/1
f 26/26/1 72/72/1 27/27/1
f 55/53/1 53/51/1 49/47/1
f 36/36/1 54/52/1 49/47/1
f 14/14/1 70/70/1 38/38/1
f 22/22/1 17/17/1 16/16/1
f 61/57/1 39/39/1 24/24/1
f 4/4/1 25/25/1 27/27/1
f 8/8/1 71/71/1 6/6/1
f 59/55/1 7/7/1 9/9/1
f 30/30/1 51/49/1 6/6/1
f 51/49/1 50/48/1 6/6/1
f 50/48/1 81/81/1 6/6/1
f 81/81/1 8/8/1 6/6/1
f 8/8/1 81/81/1 9/9/1
f 81/81/1 50/48/1 9/9/1
