# Blender v2.82 (sub 7) OBJ File: ''
# www.blender.org
mtllib cloth.mtl
v 0.126873 -0.000000 -0.259435
v 0.126873 -0.000000 -0.134435
v 0.501873 -0.000000 -0.259435
v 0.376873 -0.000000 -0.259435
v 0.376873 -0.000000 -0.384435
v 0.501873 -0.000000 -0.634435
v 0.501873 -0.000000 -0.509435
v 0.376873 -0.000000 -0.634435
v -0.123127 -0.000000 -0.259435
v -0.123127 -0.000000 -0.384435
v -0.248127 -0.000000 -0.509435
v -0.123127 -0.000000 -0.509435
v -0.498127 -0.000000 -0.509435
v -0.373127 -0.000000 -0.509435
v -0.373127 -0.000000 -0.384435
v -0.498127 -0.000000 -0.384435
v 0.376873 -0.000000 -0.759435
v 0.251873 -0.000000 -0.759435
v 0.376873 -0.000000 -0.884435
v -0.248127 -0.000000 -0.384435
v -0.498127 -0.000000 -0.259435
v -0.373127 -0.000000 -0.259435
v -0.373127 -0.000000 -0.134435
v 0.501873 -0.000000 -0.134435
v 0.501873 -0.000000 -0.009435
v 0.376873 -0.000000 -0.134435
v 0.251873 -0.000000 -0.634435
v 0.251873 -0.000000 -0.134435
v 0.251873 -0.000000 -0.259435
v 0.501873 -0.000000 -1.009435
v 0.501873 -0.000000 -0.884435
v 0.251873 -0.000000 -0.884435
v 0.126873 -0.000000 -0.884435
v -0.248127 -0.000000 -0.259435
v -0.498127 -0.000000 -0.759435
v -0.373127 -0.000000 -0.759435
v -0.373127 -0.000000 -0.634435
v -0.498127 -0.000000 -0.134435
v -0.248127 -0.000000 -0.634435
v -0.248127 -0.000000 -0.759435
v -0.123127 -0.000000 -0.634435
v 0.126873 -0.000000 -0.009435
v 0.001873 -0.000000 -0.009435
v 0.001873 -0.000000 -0.759435
v 0.001873 -0.000000 -0.634435
v -0.248127 -0.000000 -1.009435
v -0.248127 -0.000000 -0.884435
v -0.373127 -0.000000 -0.884435
v 0.251873 -0.000000 -0.509435
v 0.251873 -0.000000 -0.384435
v 0.126873 -0.000000 -0.384435
v -0.373127 -0.000000 -1.009435
v -0.498127 -0.000000 -0.884435
v -0.498127 -0.000000 -1.009435
v 0.251873 -0.000000 -0.009435
v 0.126873 -0.000000 -0.759435
v 0.126873 -0.000000 -0.634435
v 0.501873 -0.000000 -0.759435
v -0.373127 -0.000000 -0.009435
v -0.498127 -0.000000 -0.009435
v 0.001873 -0.000000 -0.384435
v 0.001873 -0.000000 -0.509435
v 0.001873 -0.000000 -0.884435
v -0.123127 -0.000000 -0.884435
v 0.001873 -0.000000 -1.009435
v 0.376873 -0.000000 -1.009435
v 0.126873 -0.000000 -1.009435
v 0.251873 -0.000000 -1.009435
v -0.498127 -0.000000 -0.634435
v 0.501873 -0.000000 -0.384435
v 0.376873 -0.000000 -0.009435
v -0.248127 -0.000000 -0.009435
v -0.248127 -0.000000 -0.134435
v -0.123127 -0.000000 -0.134435
v 0.126873 -0.000000 -0.509435
v -0.123127 -0.000000 -0.009435
v -0.123127 -0.000000 -0.759435
v -0.123127 -0.000000 -1.009435
v 0.376873 -0.000000 -0.509435
v -0.069824 -0.000000 -0.331132
v 0.001873 -0.000000 -0.331132
v 0.106236 -0.000000 -0.259435
v 0.073570 -0.000000 -0.331132
v 0.106236 -0.000000 -0.155072
v -0.097042 -0.000000 -0.259435
v -0.097042 -0.000000 -0.160520
v 0.001873 -0.000000 -0.127854
v 0.106236 -0.000000 -0.127854
v -0.097042 -0.000000 -0.127854
v 0.106236 -0.000000 -0.331132
v -0.097042 -0.000000 -0.331132
vt 0.250000 1.000000
vt 0.250000 0.875000
vt 0.375000 0.875000
vt 0.625000 1.000000
vt 0.500000 1.000000
vt 0.625000 0.875000
vt 0.500000 0.250000
vt 0.500000 0.375000
vt 0.375000 0.375000
vt 0.500000 0.000000
vt 0.500000 0.125000
vt 0.375000 0.125000
vt 0.375000 0.000000
vt 0.750000 0.875000
vt 0.750000 0.750000
vt 0.875000 0.875000
vt 0.375000 0.250000
vt 0.250000 0.000000
vt 0.250000 0.125000
vt 0.125000 0.125000
vt 0.125000 1.000000
vt 0.000000 1.000000
vt 0.125000 0.875000
vt 0.625000 0.750000
vt 0.125000 0.750000
vt 0.250000 0.750000
vt 1.000000 1.000000
vt 0.875000 1.000000
vt 0.875000 0.750000
vt 0.875000 0.625000
vt 0.250000 0.250000
vt 0.750000 0.000000
vt 0.750000 0.125000
vt 0.625000 0.125000
vt 0.125000 0.000000
vt 0.625000 0.250000
vt 0.750000 0.250000
vt 0.625000 0.375000
vt 0.000000 0.625000
vt 0.000000 0.500000
vt 0.125000 0.625000
vt 0.750000 0.500000
vt 0.625000 0.500000
vt 1.000000 0.250000
vt 0.875000 0.250000
vt 0.875000 0.125000
vt 0.500000 0.750000
vt 0.375000 0.750000
vt 0.375000 0.625000
vt 1.000000 0.125000
vt 0.875000 0.000000
vt 1.000000 0.000000
vt 0.000000 0.750000
vt 0.750000 0.625000
vt 0.625000 0.625000
vt 0.750000 1.000000
vt 0.000000 0.125000
vt 0.000000 0.000000
vt 0.375000 0.500000
vt 0.500000 0.500000
vt 0.875000 0.500000
vt 0.875000 0.375000
vt 1.000000 0.500000
vt 1.000000 0.875000
vt 1.000000 0.625000
vt 1.000000 0.750000
vt 0.625000 0.000000
vt 0.375000 1.000000
vt 0.000000 0.875000
vt 0.118419 0.401085
vt 0.125000 0.375000
vt 0.000000 0.250000
vt 0.125000 0.250000
vt 0.500000 0.625000
vt 0.250000 0.375000
vt 0.000000 0.375000
vt 0.750000 0.375000
vt 0.250000 0.625000
vt 1.000000 0.375000
vt 0.151085 0.401085
vt 0.321697 0.428303
vt 0.321697 0.604363
vt 0.321697 0.571697
vt 0.500000 0.875000
vt 0.145637 0.604363
vt 0.321697 0.401085
vt 0.118419 0.604363
vt 0.118419 0.500000
vt 0.250000 0.401085
vt 0.321697 0.500000
vt 0.250000 0.604363
vn 0.0000 -1.0000 -0.0000
usemtl Default_OBJ
s 1
f 3/1/1 4/2/1 5/3/1
f 6/4/1 7/5/1 8/6/1
f 11/7/1 12/8/1 10/9/1
f 13/10/1 14/11/1 15/12/1
f 16/13/1 13/10/1 15/12/1
f 17/14/1 18/15/1 19/16/1
f 11/7/1 20/17/1 15/12/1
f 21/18/1 22/19/1 23/20/1
f 24/21/1 25/22/1 26/23/1
f 27/24/1 18/15/1 8/6/1
f 28/25/1 29/26/1 26/23/1
f 30/27/1 31/28/1 19/16/1
f 32/29/1 18/15/1 33/30/1
f 22/19/1 34/31/1 23/20/1
f 35/32/1 36/33/1 37/34/1
f 38/35/1 21/18/1 23/20/1
f 39/36/1 40/37/1 41/38/1
f 42/39/1 43/40/1 2/41/1
f 44/42/1 45/43/1 41/38/1
f 46/44/1 47/45/1 48/46/1
f 49/47/1 50/48/1 51/49/1
f 52/50/1 46/44/1 48/46/1
f 53/51/1 54/52/1 48/46/1
f 49/47/1 27/24/1 8/6/1
f 11/7/1 39/36/1 41/38/1
f 55/53/1 28/25/1 26/23/1
f 44/42/1 56/54/1 57/55/1
f 58/56/1 17/14/1 19/16/1
f 59/57/1 60/58/1 23/20/1
f 61/59/1 62/60/1 51/49/1
f 45/43/1 62/60/1 41/38/1
f 63/61/1 44/42/1 64/62/1
f 65/63/1 63/61/1 64/62/1
f 66/64/1 30/27/1 19/16/1
f 67/65/1 68/66/1 33/30/1
f 56/54/1 18/15/1 57/55/1
f 69/67/1 35/32/1 37/34/1
f 36/33/1 40/37/1 37/34/1
f 70/68/1 3/1/1 5/3/1
f 4/2/1 29/26/1 5/3/1
f 12/8/1 62/60/1 10/9/1
f 14/11/1 11/7/1 15/12/1
f 50/48/1 29/26/1 51/49/1
f 31/28/1 58/56/1 19/16/1
f 71/69/1 55/53/1 26/23/1
f 89/70/1 43/40/1 74/71/1
f 47/45/1 40/37/1 48/46/1
f 72/72/1 73/73/1 74/71/1
f 75/74/1 62/60/1 57/55/1
f 9/75/1 34/31/1 10/9/1
f 76/76/1 72/72/1 74/71/1
f 43/40/1 76/76/1 74/71/1
f 77/77/1 40/37/1 64/62/1
f 1/78/1 29/26/1 2/41/1
f 78/79/1 65/63/1 64/62/1
f 73/73/1 34/31/1 74/71/1
f 68/66/1 66/64/1 19/16/1
f 20/17/1 34/31/1 15/12/1
f 18/15/1 32/29/1 19/16/1
f 32/29/1 68/66/1 19/16/1
f 68/66/1 32/29/1 33/30/1
f 34/31/1 9/75/1 74/71/1
f 9/75/1 86/80/1 74/71/1
f 62/60/1 61/59/1 10/9/1
f 61/59/1 80/81/1 10/9/1
f 40/37/1 47/45/1 64/62/1
f 47/45/1 46/44/1 64/62/1
f 29/26/1 1/78/1 51/49/1
f 90/82/1 83/83/1 51/49/1
f 34/31/1 73/73/1 23/20/1
f 73/73/1 72/72/1 23/20/1
f 29/26/1 28/25/1 2/41/1
f 28/25/1 55/53/1 2/41/1
f 40/37/1 36/33/1 48/46/1
f 36/33/1 35/32/1 48/46/1
f 34/31/1 22/19/1 15/12/1
f 22/19/1 21/18/1 15/12/1
f 29/26/1 4/2/1 26/23/1
f 4/2/1 3/1/1 26/23/1
f 18/15/1 17/14/1 8/6/1
f 17/14/1 58/56/1 8/6/1
f 18/15/1 27/24/1 57/55/1
f 27/24/1 49/47/1 57/55/1
f 34/31/1 20/17/1 10/9/1
f 20/17/1 11/7/1 10/9/1
f 40/37/1 77/77/1 41/38/1
f 77/77/1 44/42/1 41/38/1
f 44/42/1 77/77/1 64/62/1
f 72/72/1 59/57/1 23/20/1
f 46/44/1 78/79/1 64/62/1
f 55/53/1 42/39/1 2/41/1
f 65/63/1 67/65/1 33/30/1
f 62/60/1 45/43/1 57/55/1
f 45/43/1 44/42/1 57/55/1
f 44/42/1 63/61/1 33/30/1
f 63/61/1 65/63/1 33/30/1
f 18/15/1 56/54/1 33/30/1
f 56/54/1 44/42/1 33/30/1
f 62/60/1 12/8/1 41/38/1
f 12/8/1 11/7/1 41/38/1
f 11/7/1 14/11/1 37/34/1
f 14/11/1 13/10/1 37/34/1
f 40/37/1 39/36/1 37/34/1
f 39/36/1 11/7/1 37/34/1
f 62/60/1 75/74/1 51/49/1
f 75/74/1 49/47/1 51/49/1
f 49/47/1 75/74/1 57/55/1
f 25/22/1 71/69/1 26/23/1
f 54/52/1 52/50/1 48/46/1
f 35/32/1 53/51/1 48/46/1
f 13/10/1 69/67/1 37/34/1
f 21/18/1 16/13/1 15/12/1
f 60/58/1 38/35/1 23/20/1
f 3/1/1 24/21/1 26/23/1
f 7/5/1 70/68/1 5/3/1
f 58/56/1 6/4/1 8/6/1
f 29/26/1 50/48/1 5/3/1
f 50/48/1 49/47/1 5/3/1
f 49/47/1 79/84/1 5/3/1
f 79/84/1 7/5/1 5/3/1
f 7/5/1 79/84/1 8/6/1
f 79/84/1 49/47/1 8/6/1
f 84/85/1 1/78/1 2/41/1
f 83/83/1 61/59/1 51/49/1
f 91/86/1 9/75/1 10/9/1
f 88/87/1 2/41/1 43/40/1
f 74/71/1 86/80/1 89/70/1
f 89/70/1 87/88/1 43/40/1
f 9/75/1 85/89/1 86/80/1
f 61/59/1 81/90/1 80/81/1
f 51/49/1 1/78/1 90/82/1
f 1/78/1 82/91/1 90/82/1
f 84/85/1 82/91/1 1/78/1
f 83/83/1 81/90/1 61/59/1
f 10/9/1 80/81/1 91/86/1
f 91/86/1 85/89/1 9/75/1
f 88/87/1 84/85/1 2/41/1
f 43/40/1 87/88/1 88/87/1
