# Blender v2.82 (sub 7) OBJ File: ''
# www.blender.org
mtllib final_target_cloth.mtl
v 0.502480 0.740164 0.379361
v 0.590862 0.694277 0.454857
v 0.554333 0.771732 0.545417
v 0.727426 0.513608 0.729136
v 0.660583 0.559290 0.634071
v 0.765415 0.577637 0.568434
v 0.830261 0.516715 0.657565
v 0.930304 0.515925 0.581870
v 0.770221 0.441485 0.578034
v 0.406223 0.691071 0.442135
v 0.380957 0.617072 0.344860
v 0.260613 0.497533 0.392119
v 0.382580 0.494335 0.362678
v 0.072319 0.522881 0.554922
v 0.166336 0.510212 0.473365
v 0.239503 0.579423 0.547202
v 0.173128 0.517988 0.629782
v 0.668804 0.449515 0.650597
v 0.599096 0.399193 0.559211
v 0.586908 0.408657 0.737579
v 0.310761 0.598053 0.446375
v 0.272155 0.508681 0.706489
v 0.342264 0.554602 0.613958
v 0.435505 0.578757 0.695198
v 0.649155 0.571352 0.808544
v 0.559968 0.602133 0.893173
v 0.569938 0.594988 0.714072
v 0.698350 0.406697 0.482152
v 0.539226 0.674520 0.622196
v 0.592344 0.599205 0.536664
v 0.587695 0.406600 0.917220
v 0.668021 0.444818 0.826276
v 0.546568 0.328495 0.649684
v 0.547438 0.231310 0.572123
v 0.413993 0.591282 0.517879
v 0.258618 0.511442 0.721051
v 0.329957 0.454685 0.635486
v 0.231545 0.446584 0.558749
v 0.356013 0.552944 0.788940
v 0.307086 0.409025 0.466752
v 0.402148 0.400316 0.548542
v 0.381361 0.370615 0.372147
v 0.486654 0.842850 0.622378
v 0.485638 0.934053 0.536743
v 0.503805 0.246134 0.401887
v 0.506406 0.365684 0.356359
v 0.495939 0.258287 0.733718
v 0.449859 0.330156 0.641762
v 0.404401 0.410280 0.726973
v 0.747363 0.497489 0.412090
v 0.696554 0.597696 0.466284
v 0.628829 0.618156 0.363043
v 0.437162 0.329733 0.818095
v 0.324347 0.455392 0.812306
v 0.397663 0.410870 0.906450
v 0.490293 0.751552 0.707825
v 0.583793 0.303409 0.479430
v 0.627894 0.371136 0.385047
v 0.736454 0.505148 0.739702
v 0.468784 0.661761 0.784003
v 0.446495 0.576748 0.874434
v 0.505350 0.618116 0.348361
v 0.506673 0.491454 0.334556
v 0.500672 0.153181 0.487726
v 0.444415 0.230108 0.567626
v 0.498121 0.062935 0.575499
v 0.551289 0.326682 0.826465
v 0.496904 0.158263 0.657932
v 0.497665 0.254892 0.738924
v 0.168542 0.522769 0.635059
v 0.826168 0.511947 0.651727
v 0.526654 0.678186 0.798138
v 0.494019 0.837334 0.457869
v 0.498755 0.737982 0.692270
v 0.458849 0.666363 0.608034
v 0.430151 0.766406 0.538426
v 0.625526 0.495228 0.381698
v 0.493923 0.834969 0.613111
v 0.415903 0.302099 0.471518
v 0.498397 0.160930 0.654165
v 0.839011 0.506693 0.496785
vt 0.250000 0.500000
vt 0.250000 0.625000
vt 0.125000 0.625000
vt 0.250000 1.000000
vt 0.250000 0.875000
vt 0.375000 0.875000
vt 0.625000 1.000000
vt 0.500000 1.000000
vt 0.625000 0.875000
vt 0.250000 0.375000
vt 0.375000 0.375000
vt 0.500000 0.250000
vt 0.500000 0.375000
vt 0.500000 0.000000
vt 0.500000 0.125000
vt 0.375000 0.125000
vt 0.375000 0.000000
vt 0.750000 0.875000
vt 0.750000 0.750000
vt 0.875000 0.875000
vt 0.375000 0.250000
vt 0.250000 0.000000
vt 0.250000 0.125000
vt 0.125000 0.125000
vt 0.125000 1.000000
vt 0.000000 1.000000
vt 0.125000 0.875000
vt 0.625000 0.750000
vt 0.125000 0.750000
vt 0.250000 0.750000
vt 1.000000 1.000000
vt 0.875000 1.000000
vt 0.875000 0.750000
vt 0.875000 0.625000
vt 0.250000 0.250000
vt 0.750000 0.000000
vt 0.750000 0.125000
vt 0.625000 0.125000
vt 0.125000 0.000000
vt 0.625000 0.250000
vt 0.750000 0.250000
vt 0.625000 0.375000
vt 0.000000 0.625000
vt 0.000000 0.500000
vt 0.750000 0.500000
vt 0.625000 0.500000
vt 1.000000 0.250000
vt 0.875000 0.250000
vt 0.875000 0.125000
vt 0.500000 0.750000
vt 0.375000 0.750000
vt 0.375000 0.625000
vt 1.000000 0.125000
vt 0.875000 0.000000
vt 1.000000 0.000000
vt 0.000000 0.750000
vt 0.750000 0.625000
vt 0.625000 0.625000
vt 0.750000 1.000000
vt 0.000000 0.125000
vt 0.000000 0.000000
vt 0.375000 0.500000
vt 0.500000 0.500000
vt 0.875000 0.500000
vt 0.875000 0.375000
vt 1.000000 0.500000
vt 1.000000 0.875000
vt 1.000000 0.625000
vt 1.000000 0.750000
vt 0.625000 0.000000
vt 0.375000 1.000000
vt 0.000000 0.875000
vt 0.125000 0.500000
vt 0.000000 0.250000
vt 0.125000 0.250000
vt 0.125000 0.375000
vt 0.500000 0.625000
vt 0.000000 0.375000
vt 0.750000 0.375000
vt 1.000000 0.375000
vt 0.500000 0.875000
vn -0.6422 -0.6909 0.3319
vn -0.0803 -0.9193 -0.3853
vn -0.3595 0.7981 -0.4835
vn 0.6040 -0.7021 0.3772
vn 0.2358 0.1427 0.9613
vn 0.3014 -0.8263 0.4758
vn 0.2726 -0.8639 -0.4236
vn -0.5120 0.8552 -0.0804
vn 0.7155 -0.5728 0.3999
vn 0.3792 -0.9105 -0.1645
vn -0.3085 -0.9510 0.0208
vn -0.2165 0.9585 -0.1855
vn -0.8708 -0.4764 -0.1213
vn -0.4183 0.9082 0.0122
vn -0.9094 0.2545 -0.3291
vn 0.3355 -0.9360 -0.1068
vn 0.2342 0.8887 -0.3942
vn 0.3978 -0.9135 0.0858
vn 0.2499 0.9496 -0.1893
vn -0.8400 -0.3764 -0.3909
vn 0.1309 0.3503 0.9274
vn 0.8569 0.5148 -0.0270
vn -0.7337 -0.5711 0.3681
vn 0.8437 0.5149 0.1518
vn 0.5038 0.8637 0.0161
vn -0.7160 0.6256 0.3098
vn 0.7136 0.6311 0.3041
vn -0.8855 -0.4543 -0.0973
vn -0.6847 0.7047 0.1858
vn -0.5375 0.8356 -0.1136
vn 0.9474 -0.3139 -0.0616
vn -0.1173 -0.1088 0.9871
vn 0.1300 0.1691 0.9770
vn 0.8914 0.2909 0.3475
vn 0.8917 0.3023 0.3368
vn -0.9137 0.4064 0.0087
vn -0.9125 0.2670 -0.3100
vn -0.9258 0.3181 -0.2043
vn 0.4749 0.7871 -0.3937
vn 0.2211 0.8988 -0.3785
vn -0.3406 -0.8430 -0.4164
vn -0.0531 -0.9365 -0.3466
vn 0.2219 0.1430 0.9645
vn 0.3000 -0.8261 0.4770
vn -0.1014 -0.9865 -0.1290
vn -0.5373 0.8294 0.1532
vn -0.1143 -0.2471 0.9622
vn -0.8911 -0.4537 -0.0098
vn -0.8730 -0.3514 0.3381
vn 0.8502 0.5249 -0.0400
vn 0.9113 -0.0245 -0.4109
vn -0.3691 0.0180 0.9292
vn 0.9775 -0.0739 -0.1977
vn 0.8448 -0.3125 -0.4344
vn 0.8421 -0.2833 -0.4589
vn -0.8731 -0.3501 0.3392
vn 0.9669 0.2270 -0.1168
vn -0.9560 -0.1997 -0.2148
vn 0.8990 0.2727 -0.3428
vn 0.9058 -0.0340 -0.4223
vn -0.8586 0.4993 0.1164
vn 0.0414 -0.9873 -0.1532
vn -0.8491 0.5212 -0.0857
vn -0.8635 0.5007 -0.0603
vn -0.9210 0.2379 -0.3085
vn 0.9794 -0.0681 -0.1901
vn 0.6074 -0.6919 0.3903
vn 0.8566 -0.2771 0.4352
vn 0.8568 -0.2792 0.4335
vn -0.0271 -0.1086 0.9937
vn -0.0252 -0.2467 0.9688
vn 0.9247 0.1928 -0.3281
vn 0.9290 0.1864 -0.3198
vn -0.9527 -0.2065 -0.2228
vn -0.6368 -0.7021 0.3187
vn 0.9143 -0.3808 -0.1378
vn 0.9215 -0.3683 -0.1234
vn -0.8984 -0.1776 -0.4016
vn -0.9118 -0.1578 -0.3791
vn 0.5590 0.8274 -0.0533
vn 0.5707 0.8184 -0.0671
vn 0.0041 -0.9352 -0.3540
vn 0.0493 -0.9090 -0.4138
vn -0.4218 -0.9036 -0.0748
vn -0.4478 -0.8872 -0.1115
vn -0.1861 0.9137 -0.3612
vn -0.2127 0.8932 -0.3962
vn -0.2203 0.9567 -0.1905
vn -0.7246 0.6213 0.2982
vn 0.0428 -0.9869 -0.1553
vn 0.7213 -0.5713 0.3917
vn 0.9542 0.2556 -0.1555
vn 0.6566 0.7080 0.2599
vn 0.6718 0.6745 0.3060
vn 0.9293 -0.3692 -0.0032
vn 0.8987 0.2908 -0.3281
vn -0.8397 -0.3885 -0.3794
vn -0.9124 0.2609 -0.3152
vn -0.2337 0.1666 0.9579
vn -0.2301 0.3507 0.9078
vn -0.9261 0.2723 0.2611
vn -0.9260 0.2764 0.2573
vn -0.9476 0.2797 -0.1541
vn -0.7079 0.6646 0.2393
vn 0.2220 0.0722 0.9724
vn 0.2358 0.0719 0.9691
vn 0.4003 0.8545 0.3311
vn 0.4014 0.8543 0.3301
vn 0.2468 0.9511 -0.1856
vn 0.7029 0.6366 0.3173
vn -0.3687 0.1491 0.9175
vn -0.2419 0.1519 0.9583
vn -0.2424 0.0216 0.9699
vn -0.8998 -0.4351 -0.0327
vn 0.9123 0.4083 0.0329
vn 0.5648 0.8196 0.0966
vn 0.3909 0.7924 -0.4683
vn 0.2564 -0.8628 -0.4357
vn 0.2789 -0.9599 -0.0279
vn -0.4652 -0.8682 0.1728
vn -0.2776 -0.8424 -0.4618
vn -0.4541 0.7926 -0.4070
vn -0.0998 -0.9869 -0.1266
vn -0.7273 -0.5730 0.3777
vn -0.3425 -0.8194 0.4596
vn -0.3441 -0.8196 0.4581
vn -0.4032 0.8495 0.3404
vn -0.4014 0.8496 0.3420
usemtl Default_OBJ
s off
f 1/1/1 2/2/1 3/3/1
f 4/4/2 5/5/2 6/6/2
f 7/7/3 8/8/3 9/9/3
f 1/1/4 10/10/4 11/11/4
f 12/12/5 13/13/5 11/11/5
f 14/14/6 15/15/6 16/16/6
f 17/17/7 14/14/7 16/16/7
f 18/18/8 19/19/8 20/20/8
f 12/12/9 21/21/9 16/16/9
f 22/22/10 23/23/10 24/24/10
f 25/25/11 26/26/11 27/27/11
f 28/28/12 19/19/12 9/9/12
f 29/29/13 30/30/13 27/27/13
f 31/31/14 32/32/14 20/20/14
f 33/33/15 19/19/15 34/34/15
f 23/23/16 35/35/16 24/24/16
f 36/36/17 37/37/17 38/38/17
f 39/39/18 22/22/18 24/24/18
f 40/40/19 41/41/19 42/42/19
f 43/43/20 44/44/20 3/3/20
f 45/45/21 46/46/21 42/42/21
f 47/47/22 48/48/22 49/49/22
f 50/50/23 51/51/23 52/52/23
f 53/53/24 47/47/24 49/49/24
f 54/54/25 55/55/25 49/49/25
f 50/50/26 28/28/26 9/9/26
f 12/12/27 40/40/27 42/42/27
f 56/56/28 29/29/28 27/27/28
f 45/45/29 57/57/29 58/58/29
f 59/59/30 18/18/30 20/20/30
f 60/60/31 61/61/31 24/24/31
f 62/62/32 63/63/32 52/52/32
f 46/46/33 63/63/33 42/42/33
f 64/64/34 45/45/34 65/65/34
f 66/66/35 64/64/35 65/65/35
f 67/67/36 31/31/36 20/20/36
f 68/68/37 69/69/37 34/34/37
f 57/57/38 19/19/38 58/58/38
f 70/70/39 36/36/39 38/38/39
f 37/37/40 41/41/40 38/38/40
f 71/71/41 4/4/41 6/6/41
f 5/5/42 30/30/42 6/6/42
f 13/13/43 63/63/43 11/11/43
f 15/15/44 12/12/44 16/16/44
f 51/51/45 30/30/45 52/52/45
f 32/32/46 59/59/46 20/20/46
f 1/1/47 62/62/47 52/52/47
f 72/72/48 56/56/48 27/27/48
f 44/44/49 73/73/49 3/3/49
f 48/48/50 41/41/50 49/49/50
f 74/74/51 75/75/51 76/76/51
f 77/77/52 63/63/52 58/58/52
f 10/10/53 35/35/53 11/11/53
f 78/78/54 74/74/54 76/76/54
f 44/44/55 78/78/55 76/76/55
f 73/73/56 1/1/56 3/3/56
f 79/79/57 41/41/57 65/65/57
f 2/2/58 30/30/58 3/3/58
f 80/80/59 66/66/59 65/65/59
f 75/75/60 35/35/60 76/76/60
f 69/69/61 67/67/61 20/20/61
f 21/21/62 35/35/62 16/16/62
f 19/19/63 33/33/63 20/20/63
f 33/33/64 69/69/64 20/20/64
f 69/69/65 33/33/65 34/34/65
f 35/35/66 10/10/66 76/76/66
f 10/10/67 1/1/67 76/76/67
f 1/1/68 73/73/68 76/76/68
f 73/73/69 44/44/69 76/76/69
f 63/63/70 62/62/70 11/11/70
f 62/62/71 1/1/71 11/11/71
f 41/41/72 48/48/72 65/65/72
f 48/48/73 47/47/73 65/65/73
f 30/30/74 2/2/74 52/52/74
f 2/2/75 1/1/75 52/52/75
f 35/35/76 75/75/76 24/24/76
f 75/75/77 74/74/77 24/24/77
f 30/30/78 29/29/78 3/3/78
f 29/29/79 56/56/79 3/3/79
f 41/41/80 37/37/80 49/49/80
f 37/37/81 36/36/81 49/49/81
f 35/35/82 23/23/82 16/16/82
f 23/23/83 22/22/83 16/16/83
f 30/30/84 5/5/84 27/27/84
f 5/5/85 4/4/85 27/27/85
f 19/19/86 18/18/86 9/9/86
f 18/18/87 59/59/87 9/9/87
f 19/19/88 28/28/88 58/58/88
f 28/28/89 50/50/89 58/58/89
f 35/35/90 21/21/90 11/11/90
f 21/21/91 12/12/91 11/11/91
f 41/41/92 79/79/92 42/42/92
f 79/79/93 45/45/93 42/42/93
f 45/45/94 79/79/94 65/65/94
f 74/74/95 60/60/95 24/24/95
f 47/47/96 80/80/96 65/65/96
f 56/56/97 43/43/97 3/3/97
f 66/66/98 68/68/98 34/34/98
f 63/63/99 46/46/99 58/58/99
f 46/46/100 45/45/100 58/58/100
f 45/45/101 64/64/101 34/34/101
f 64/64/102 66/66/102 34/34/102
f 19/19/103 57/57/103 34/34/103
f 57/57/104 45/45/104 34/34/104
f 63/63/105 13/13/105 42/42/105
f 13/13/106 12/12/106 42/42/106
f 12/12/107 15/15/107 38/38/107
f 15/15/108 14/14/108 38/38/108
f 41/41/109 40/40/109 38/38/109
f 40/40/110 12/12/110 38/38/110
f 63/63/111 77/77/111 52/52/111
f 77/77/112 50/50/112 52/52/112
f 50/50/113 77/77/113 58/58/113
f 26/26/114 72/72/114 27/27/114
f 55/55/115 53/53/115 49/49/115
f 36/36/116 54/54/116 49/49/116
f 14/14/117 70/70/117 38/38/117
f 22/22/118 17/17/118 16/16/118
f 61/61/119 39/39/119 24/24/119
f 4/4/120 25/25/120 27/27/120
f 8/8/121 71/71/121 6/6/121
f 59/59/122 7/7/122 9/9/122
f 30/30/123 51/51/123 6/6/123
f 51/51/124 50/50/124 6/6/124
f 50/50/125 81/81/125 6/6/125
f 81/81/126 8/8/126 6/6/126
f 8/8/127 81/81/127 9/9/127
f 81/81/128 50/50/128 9/9/128
