# Blender v2.82 (sub 7) OBJ File: ''
# www.blender.org
mtllib mask.mtl
v 0.026811 -0.543125 -0.099766
v -0.105074 -0.543125 -0.037302
v -0.105459 -0.543125 -0.225288
v 0.254958 -0.543125 -0.505344
v 0.159083 -0.543125 -0.224817
v 0.144650 -0.543125 -0.526042
v -0.236541 -0.543125 -0.499199
v -0.237490 -0.543125 -0.256948
v -0.303430 -0.543125 -0.288163
v 0.021029 -0.543125 -0.533996
v -0.123097 -0.543125 -0.522767
v 0.026976 -0.543125 0.150596
v -0.105320 -0.543125 0.276258
v -0.105288 -0.543125 0.088028
v 0.557302 -0.543125 0.089441
v 0.423263 -0.543125 0.214698
v 0.429233 -0.543125 -0.068016
v 0.158771 -0.543125 -0.036833
v 0.290499 -0.543125 -0.067941
v 0.291159 -0.543125 0.167237
v 0.159189 -0.543125 0.151101
v 0.026437 -0.543125 0.464796
v 0.158360 -0.543125 0.451438
v -0.237415 -0.543125 0.135123
v -0.236808 -0.543125 -0.068669
v -0.375476 -0.543125 -0.068594
v -0.369621 -0.543125 0.214095
v -0.503626 -0.543125 0.088783
v -0.303358 -0.543125 0.213244
v -0.302519 -0.543125 -0.068728
v -0.236686 -0.543125 0.424034
v -0.367989 -0.543125 0.376142
v -0.369645 -0.543125 -0.288669
v -0.504229 -0.543125 -0.163536
v 0.419763 -0.543125 -0.451349
v 0.423469 -0.543125 -0.288107
v 0.357223 -0.543125 -0.287299
v 0.026783 -0.543125 -0.287735
v 0.291176 -0.543125 -0.256135
v 0.558024 -0.543125 -0.162895
v -0.201097 -0.543125 0.431732
v 0.359720 -0.543125 0.400392
v 0.290095 -0.543125 0.425168
v 0.419431 -0.543125 0.378113
v 0.357052 -0.543125 0.214178
v 0.553080 -0.543125 0.293819
v -0.365834 -0.543125 -0.452097
v 0.559773 -0.543125 -0.036566
v 0.356213 -0.543125 -0.067848
v -0.105075 -0.543125 0.451526
v -0.499386 -0.543125 0.293144
v -0.506037 -0.543125 -0.037211
v -0.300622 -0.543125 0.401528
v -0.499402 -0.543125 -0.367810
v 0.553133 -0.543125 -0.367181
v -0.472829 -0.543125 -0.390550
v 0.482719 -0.543125 0.341726
v 0.483131 -0.543125 -0.415346
v -0.306141 -0.543125 -0.474399
v -0.365968 -0.543125 0.377296
v -0.429339 -0.543125 0.341299
v 0.354380 -0.543125 -0.475557
vt 0.500000 0.437500
vt 0.375000 0.500000
vt 0.375000 0.312500
vt 0.716205 0.033795
vt 0.625000 0.312500
vt 0.611652 0.013348
vt 0.250000 0.041349
vt 0.250000 0.281250
vt 0.187500 0.250000
vt 0.494344 0.005656
vt 0.357729 0.017271
vt 0.500000 0.687500
vt 0.375000 0.812500
vt 0.375000 0.625000
vt 1.000000 0.625000
vt 0.875000 0.750000
vt 0.875000 0.468750
vt 0.625000 0.500000
vt 0.750000 0.468750
vt 0.750000 0.703125
vt 0.625000 0.687500
vt 0.500000 1.000000
vt 0.625000 0.985684
vt 0.250000 0.671875
vt 0.250000 0.468750
vt 0.125000 0.468750
vt 0.125000 0.750000
vt 0.000000 0.625000
vt 0.187500 0.750000
vt 0.187500 0.468750
vt 0.250000 0.958651
vt 0.125000 0.910214
vt 0.125000 0.250000
vt 0.000000 0.375000
vt 0.873063 0.088627
vt 0.875000 0.250000
vt 0.812500 0.250000
vt 0.500000 0.250000
vt 0.750000 0.281250
vt 1.000000 0.375000
vt 0.283795 0.966205
vt 0.816254 0.933746
vt 0.750000 0.958651
vt 0.873062 0.911374
vt 0.812500 0.750000
vt 1.000000 0.827237
vt 0.126937 0.088627
vt 1.000000 0.500000
vt 0.812500 0.468750
vt 0.375000 0.985683
vt 0.000000 0.827237
vt 0.000000 0.500000
vt 0.189133 0.935867
vt 0.000000 0.172763
vt 1.000000 0.172763
vt 0.025181 0.150156
vt 0.933217 0.875000
vt 0.933217 0.125000
vt 0.183746 0.066254
vt 0.126937 0.911373
vt 0.066783 0.875000
vt 0.810867 0.064133
vn 0.0000 -1.0000 0.0000
vn 0.0000 -1.0000 0.0001
vn 0.0000 -1.0000 0.0002
usemtl Default_OBJ
s off
f 1/1/1 2/2/1 3/3/1
f 4/4/1 5/5/1 6/6/1
f 7/7/1 8/8/1 9/9/1
f 10/10/1 3/3/1 11/11/1
f 12/12/1 13/13/1 14/14/1
f 15/15/1 16/16/1 17/17/1
f 18/18/1 12/12/1 1/1/1
f 19/19/1 20/20/1 21/21/1
f 21/21/1 22/22/1 12/12/1
f 20/20/1 23/23/1 21/21/1
f 14/14/1 24/24/1 25/25/1
f 1/1/1 14/14/1 2/2/1
f 26/26/1 27/27/1 28/28/1
f 25/25/1 29/29/1 30/30/1
f 29/29/1 31/31/1 32/32/1
f 11/11/1 8/8/1 7/7/1
f 33/33/1 26/26/1 34/34/1
f 8/8/1 30/30/1 9/9/1
f 35/35/1 36/36/1 37/37/1
f 6/6/1 38/38/1 10/10/1
f 5/5/1 1/1/1 38/38/1
f 39/39/1 19/19/1 5/5/1
f 10/10/1 38/38/1 3/3/1
f 40/40/1 17/17/1 36/36/1
f 3/3/1 25/25/1 8/8/1
f 41/41/1 31/31/1 13/13/1
f 13/13/1 31/31/1 24/24/1
f 42/42/1 43/43/1 44/44/1
f 45/45/1 44/44/1 43/43/1
f 46/46/1 44/44/1 16/16/1
f 37/37/1 19/19/1 39/39/1
f 47/47/1 7/7/1 9/9/1
f 33/33/1 47/47/1 9/9/1
f 4/4/1 39/39/1 5/5/1
f 18/18/1 5/5/1 19/19/1
f 40/40/1 48/48/1 17/17/1
f 49/49/1 20/20/1 19/19/1
f 22/22/1 50/50/1 13/13/1
f 15/15/1 46/46/1 16/16/1
f 48/48/1 15/15/1 17/17/1
f 18/18/1 21/21/1 12/12/1
f 21/21/1 18/18/1 19/19/1
f 21/21/1 23/23/1 22/22/1
f 20/20/1 43/43/1 23/23/1
f 14/14/1 13/13/1 24/24/1
f 2/2/1 14/14/1 25/25/1
f 1/1/1 12/12/1 14/14/1
f 51/51/1 28/28/1 27/27/1
f 28/28/1 52/52/1 26/26/1
f 25/25/1 24/24/1 29/29/1
f 32/32/2 31/31/2 53/53/2
f 32/32/1 27/27/1 29/29/1
f 29/29/1 24/24/1 31/31/1
f 11/11/1 3/3/1 8/8/1
f 47/47/1 33/33/1 54/54/1
f 52/52/1 34/34/1 26/26/1
f 34/34/1 54/54/1 33/33/1
f 8/8/1 25/25/1 30/30/1
f 39/39/1 4/4/1 37/37/1
f 4/4/1 35/35/1 37/37/1
f 6/6/1 5/5/1 38/38/1
f 5/5/1 18/18/1 1/1/1
f 55/55/1 40/40/1 36/36/1
f 3/3/1 2/2/1 25/25/1
f 38/38/1 1/1/1 3/3/1
f 13/13/1 50/50/1 41/41/1
f 12/12/1 22/22/1 13/13/1
f 47/47/1 54/54/1 56/56/1
f 43/43/1 20/20/1 45/45/1
f 45/45/1 16/16/1 44/44/1
f 46/46/1 57/57/1 44/44/1
f 37/37/1 49/49/1 19/19/1
f 49/49/1 45/45/1 20/20/1
f 36/36/1 58/58/1 55/55/1
f 59/59/3 7/7/3 47/47/3
f 53/53/2 60/60/2 32/32/2
f 35/35/1 58/58/1 36/36/1
f 51/51/1 27/27/1 61/61/1
f 27/27/1 32/32/1 61/61/1
f 4/4/1 62/62/1 35/35/1
