# Blender v2.82 (sub 7) OBJ File: ''
# www.blender.org
mtllib ref_pinned_more_stiff.mtl
v 0.500000 0.754355 -0.090245
v 0.625846 0.754407 -0.090245
v 0.626196 0.880092 -0.090247
v 1.002720 0.754454 -0.089518
v 0.877313 0.754793 -0.090200
v 0.876316 0.628596 -0.090246
v 1.001470 0.377240 -0.090233
v 1.000960 0.502674 -0.090245
v 0.876316 0.376752 -0.090246
v 0.374154 0.754407 -0.090245
v 0.374427 0.628622 -0.090245
v 0.249202 0.502674 -0.090245
v 0.374550 0.502674 -0.090245
v -0.000963 0.502674 -0.090245
v 0.123988 0.502674 -0.090245
v 0.123684 0.628596 -0.090246
v -0.001470 0.628108 -0.090233
v 0.877313 0.250555 -0.090200
v 0.751704 0.250590 -0.090244
v 0.878955 0.123671 -0.085017
v 0.248970 0.628629 -0.090245
v -0.002719 0.754454 -0.089518
v 0.122687 0.754793 -0.090200
v 0.121045 0.881677 -0.085017
v 1.003640 0.882853 -0.067132
v 0.999859 1.002560 -0.000106
v 0.878955 0.881677 -0.085017
v 0.751030 0.376719 -0.090245
v 0.752441 0.880693 -0.090157
v 0.751704 0.754758 -0.090244
v 0.999859 0.002788 -0.000106
v 1.003640 0.122495 -0.067132
v 0.752441 0.124655 -0.090157
v 0.626196 0.125256 -0.090247
v 0.248296 0.754758 -0.090244
v -0.002719 0.250894 -0.089518
v 0.122687 0.250555 -0.090200
v 0.123684 0.376752 -0.090246
v -0.003636 0.882853 -0.067132
v 0.248970 0.376719 -0.090245
v 0.248296 0.250590 -0.090244
v 0.374427 0.376726 -0.090245
v 0.626062 1.005360 -0.090154
v 0.500000 1.004900 -0.090244
v 0.500000 0.250993 -0.090245
v 0.500000 0.376805 -0.090245
v 0.247066 -0.001256 -0.088088
v 0.247559 0.124655 -0.090157
v 0.121045 0.123671 -0.085017
v 0.750798 0.502674 -0.090245
v 0.751030 0.628629 -0.090245
v 0.625573 0.628622 -0.090245
v 0.119645 -0.001530 -0.056582
v -0.003636 0.122495 -0.067132
v 0.000141 0.002788 -0.000106
v 0.752934 1.006600 -0.088088
v 0.625846 0.250941 -0.090245
v 0.625573 0.376726 -0.090245
v 1.002720 0.250894 -0.089518
v 0.119645 1.006880 -0.056582
v 0.000141 1.002560 -0.000106
v 0.500000 0.628543 -0.090245
v 0.500000 0.502674 -0.090245
v 0.500000 0.125542 -0.090245
v 0.373804 0.125256 -0.090247
v 0.500000 0.000452 -0.090244
v 0.880355 -0.001530 -0.056582
v 0.626062 -0.000011 -0.090154
v 0.752934 -0.001256 -0.088088
v -0.001470 0.377240 -0.090233
v 1.001470 0.628108 -0.090233
v 0.880355 1.006880 -0.056582
v 0.500000 0.879806 -0.090245
v 0.247066 1.006600 -0.088088
v 0.247559 0.880693 -0.090157
v 0.373804 0.880092 -0.090247
v 0.625450 0.502674 -0.090245
v 0.373938 1.005360 -0.090154
v 0.374154 0.250941 -0.090245
v 0.373938 -0.000011 -0.090154
v 0.876012 0.502674 -0.090245
vt 0.250000 0.500000
vt 0.250000 0.625000
vt 0.125000 0.625000
vt 0.250000 1.000000
vt 0.250000 0.875000
vt 0.375000 0.875000
vt 0.625000 1.000000
vt 0.500000 1.000000
vt 0.625000 0.875000
vt 0.250000 0.375000
vt 0.375000 0.375000
vt 0.500000 0.250000
vt 0.500000 0.375000
vt 0.500000 0.000000
vt 0.500000 0.125000
vt 0.375000 0.125000
vt 0.375000 0.000000
vt 0.750000 0.875000
vt 0.750000 0.750000
vt 0.875000 0.875000
vt 0.375000 0.250000
vt 0.250000 0.000000
vt 0.250000 0.125000
vt 0.125000 0.125000
vt 0.125000 1.000000
vt 0.000000 1.000000
vt 0.125000 0.875000
vt 0.625000 0.750000
vt 0.125000 0.750000
vt 0.250000 0.750000
vt 1.000000 1.000000
vt 0.875000 1.000000
vt 0.875000 0.750000
vt 0.875000 0.625000
vt 0.250000 0.250000
vt 0.750000 0.000000
vt 0.750000 0.125000
vt 0.625000 0.125000
vt 0.125000 0.000000
vt 0.625000 0.250000
vt 0.750000 0.250000
vt 0.625000 0.375000
vt 0.000000 0.625000
vt 0.000000 0.500000
vt 0.750000 0.500000
vt 0.625000 0.500000
vt 1.000000 0.250000
vt 0.875000 0.250000
vt 0.875000 0.125000
vt 0.500000 0.750000
vt 0.375000 0.750000
vt 0.375000 0.625000
vt 1.000000 0.125000
vt 0.875000 0.000000
vt 1.000000 0.000000
vt 0.000000 0.750000
vt 0.750000 0.625000
vt 0.625000 0.625000
vt 0.750000 1.000000
vt 0.000000 0.125000
vt 0.000000 0.000000
vt 0.375000 0.500000
vt 0.500000 0.500000
vt 0.875000 0.500000
vt 0.875000 0.375000
vt 1.000000 0.500000
vt 1.000000 0.875000
vt 1.000000 0.625000
vt 1.000000 0.750000
vt 0.625000 0.000000
vt 0.375000 1.000000
vt 0.000000 0.875000
vt 0.125000 0.500000
vt 0.000000 0.250000
vt 0.125000 0.250000
vt 0.125000 0.375000
vt 0.500000 0.625000
vt 0.000000 0.375000
vt 0.750000 0.375000
vt 1.000000 0.375000
vt 0.500000 0.875000
vn 0.0000 0.0000 1.0000
vn -0.0054 -0.0003 1.0000
vn -0.0001 0.0001 1.0000
vn 0.0001 -0.0001 1.0000
vn -0.0003 0.0408 0.9992
vn 0.0056 -0.0407 0.9992
vn -0.1194 -0.4879 0.8647
vn -0.0406 -0.0005 0.9992
vn -0.1194 0.4879 0.8647
vn -0.0007 0.0007 1.0000
vn 0.0003 -0.0408 0.9992
vn 0.0054 0.0003 1.0000
vn 0.1384 -0.1691 0.9758
vn -0.0007 -0.0007 1.0000
vn 0.0405 0.0163 0.9990
vn 0.2341 0.2128 0.9486
vn 0.1194 0.4879 0.8647
vn -0.0405 -0.0163 0.9990
vn -0.0056 0.0407 0.9992
vn 0.4248 -0.1960 0.8838
vn -0.4248 0.1960 0.8838
vn -0.0163 0.0008 0.9999
vn 0.0001 0.0057 1.0000
vn 0.0003 0.0004 1.0000
vn -0.0001 -0.0057 1.0000
vn -0.0003 -0.0004 1.0000
vn -0.1384 0.1691 0.9758
vn -0.2341 -0.2128 0.9486
vn 0.0406 0.0005 0.9992
vn 0.0006 -0.0164 0.9999
vn 0.0163 -0.0008 0.9999
vn 0.0007 -0.0007 1.0000
vn 0.0007 0.0007 1.0000
vn -0.2341 0.2128 0.9486
vn -0.0406 0.0005 0.9992
vn -0.0405 0.0163 0.9990
vn -0.0006 0.0164 0.9999
vn 0.0006 0.0164 0.9999
vn 0.0406 -0.0005 0.9992
vn 0.0405 -0.0163 0.9990
vn -0.0006 -0.0164 0.9999
vn 0.0003 0.0408 0.9992
vn 0.0056 0.0407 0.9992
vn 0.0003 -0.0004 1.0000
vn 0.0054 -0.0003 1.0000
vn -0.0003 -0.0408 0.9992
vn -0.0056 -0.0407 0.9992
vn -0.0003 0.0004 1.0000
vn -0.0054 0.0003 1.0000
vn 0.2341 -0.2128 0.9486
vn 0.0163 0.0008 0.9999
vn -0.0163 -0.0008 0.9999
vn -0.4248 -0.1960 0.8838
vn 0.4248 0.1960 0.8838
vn 0.1384 0.1691 0.9758
vn 0.0001 0.0001 1.0000
vn 0.0001 -0.0057 1.0000
vn 0.1194 -0.4879 0.8647
vn -0.1384 -0.1691 0.9758
vn -0.0001 -0.0001 1.0000
vn -0.0001 0.0057 1.0000
usemtl Default_OBJ.008
s off
f 1/1/1 2/2/1 3/3/1
f 4/4/2 5/5/2 6/6/2
f 7/7/3 8/8/3 9/9/3
f 1/1/1 10/10/1 11/11/1
f 12/12/1 13/13/1 11/11/1
f 14/14/1 15/15/1 16/16/1
f 17/17/4 14/14/4 16/16/4
f 18/18/5 19/19/5 20/20/5
f 12/12/1 21/21/1 16/16/1
f 22/22/6 23/23/6 24/24/6
f 25/25/7 26/26/7 27/27/7
f 28/28/1 19/19/1 9/9/1
f 29/29/8 30/30/8 27/27/8
f 31/31/9 32/32/9 20/20/9
f 33/33/10 19/19/10 34/34/10
f 23/23/11 35/35/11 24/24/11
f 36/36/12 37/37/12 38/38/12
f 39/39/13 22/22/13 24/24/13
f 40/40/1 41/41/1 42/42/1
f 43/43/14 44/44/14 3/3/14
f 45/45/1 46/46/1 42/42/1
f 47/47/15 48/48/15 49/49/15
f 50/50/1 51/51/1 52/52/1
f 53/53/16 47/47/16 49/49/16
f 54/54/17 55/55/17 49/49/17
f 50/50/1 28/28/1 9/9/1
f 12/12/1 40/40/1 42/42/1
f 56/56/18 29/29/18 27/27/18
f 45/45/1 57/57/1 58/58/1
f 59/59/19 18/18/19 20/20/19
f 60/60/20 61/61/20 24/24/20
f 62/62/1 63/63/1 52/52/1
f 46/46/1 63/63/1 42/42/1
f 64/64/1 45/45/1 65/65/1
f 66/66/1 64/64/1 65/65/1
f 67/67/21 31/31/21 20/20/21
f 68/68/22 69/69/22 34/34/22
f 57/57/1 19/19/1 58/58/1
f 70/70/23 36/36/23 38/38/23
f 37/37/24 41/41/24 38/38/24
f 71/71/25 4/4/25 6/6/25
f 5/5/26 30/30/26 6/6/26
f 13/13/1 63/63/1 11/11/1
f 15/15/1 12/12/1 16/16/1
f 51/51/1 30/30/1 52/52/1
f 32/32/27 59/59/27 20/20/27
f 1/1/1 62/62/1 52/52/1
f 72/72/28 56/56/28 27/27/28
f 44/44/1 73/73/1 3/3/1
f 48/48/29 41/41/29 49/49/29
f 74/74/30 75/75/30 76/76/30
f 77/77/1 63/63/1 58/58/1
f 10/10/1 35/35/1 11/11/1
f 78/78/31 74/74/31 76/76/31
f 44/44/32 78/78/32 76/76/32
f 73/73/1 1/1/1 3/3/1
f 79/79/1 41/41/1 65/65/1
f 2/2/1 30/30/1 3/3/1
f 80/80/33 66/66/33 65/65/33
f 75/75/32 35/35/32 76/76/32
f 69/69/34 67/67/34 20/20/34
f 21/21/1 35/35/1 16/16/1
f 19/19/35 33/33/35 20/20/35
f 33/33/36 69/69/36 20/20/36
f 69/69/37 33/33/37 34/34/37
f 35/35/1 10/10/1 76/76/1
f 10/10/1 1/1/1 76/76/1
f 1/1/1 73/73/1 76/76/1
f 73/73/1 44/44/1 76/76/1
f 63/63/1 62/62/1 11/11/1
f 62/62/1 1/1/1 11/11/1
f 41/41/33 48/48/33 65/65/33
f 48/48/38 47/47/38 65/65/38
f 30/30/1 2/2/1 52/52/1
f 2/2/1 1/1/1 52/52/1
f 35/35/39 75/75/39 24/24/39
f 75/75/40 74/74/40 24/24/40
f 30/30/14 29/29/14 3/3/14
f 29/29/41 56/56/41 3/3/41
f 41/41/42 37/37/42 49/49/42
f 37/37/43 36/36/43 49/49/43
f 35/35/44 23/23/44 16/16/44
f 23/23/45 22/22/45 16/16/45
f 30/30/46 5/5/46 27/27/46
f 5/5/47 4/4/47 27/27/47
f 19/19/48 18/18/48 9/9/48
f 18/18/49 59/59/49 9/9/49
f 19/19/1 28/28/1 58/58/1
f 28/28/1 50/50/1 58/58/1
f 35/35/1 21/21/1 11/11/1
f 21/21/1 12/12/1 11/11/1
f 41/41/1 79/79/1 42/42/1
f 79/79/1 45/45/1 42/42/1
f 45/45/1 79/79/1 65/65/1
f 74/74/50 60/60/50 24/24/50
f 47/47/51 80/80/51 65/65/51
f 56/56/52 43/43/52 3/3/52
f 66/66/10 68/68/10 34/34/10
f 63/63/1 46/46/1 58/58/1
f 46/46/1 45/45/1 58/58/1
f 45/45/1 64/64/1 34/34/1
f 64/64/1 66/66/1 34/34/1
f 19/19/1 57/57/1 34/34/1
f 57/57/1 45/45/1 34/34/1
f 63/63/1 13/13/1 42/42/1
f 13/13/1 12/12/1 42/42/1
f 12/12/1 15/15/1 38/38/1
f 15/15/1 14/14/1 38/38/1
f 41/41/1 40/40/1 38/38/1
f 40/40/1 12/12/1 38/38/1
f 63/63/1 77/77/1 52/52/1
f 77/77/1 50/50/1 52/52/1
f 50/50/1 77/77/1 58/58/1
f 26/26/53 72/72/53 27/27/53
f 55/55/54 53/53/54 49/49/54
f 36/36/55 54/54/55 49/49/55
f 14/14/56 70/70/56 38/38/56
f 22/22/57 17/17/57 16/16/57
f 61/61/58 39/39/58 24/24/58
f 4/4/59 25/25/59 27/27/59
f 8/8/60 71/71/60 6/6/60
f 59/59/61 7/7/61 9/9/61
f 30/30/1 51/51/1 6/6/1
f 51/51/1 50/50/1 6/6/1
f 50/50/1 81/81/1 6/6/1
f 81/81/1 8/8/1 6/6/1
f 8/8/1 81/81/1 9/9/1
f 81/81/1 50/50/1 9/9/1
