# Blender v2.82 (sub 7) OBJ File: ''
# www.blender.org
mtllib diag_quarters.mtl
v 0.500000 0.752674 -0.498316
v 0.625000 0.752674 -0.498316
v 0.625000 0.877674 -0.498316
v 0.753794 0.509607 -0.440445
v 0.753794 0.634607 -0.440445
v 0.875000 0.627674 -0.498316
v 1.000000 0.377674 -0.498316
v 1.000000 0.502674 -0.498316
v 0.875000 0.377674 -0.498316
v 0.375000 0.752674 -0.498316
v 0.375000 0.627674 -0.498316
v 0.250000 0.502674 -0.498316
v 0.375000 0.502674 -0.498316
v 0.000000 0.502674 -0.498316
v 0.125000 0.502674 -0.498316
v 0.125000 0.627674 -0.498316
v 0.000000 0.627674 -0.498316
v 0.875000 0.252674 -0.498316
v 0.750000 0.252674 -0.498316
v 0.875000 0.127674 -0.498316
v 0.250000 0.627674 -0.498316
v 0.000000 0.752674 -0.498316
v 0.125000 0.752674 -0.498316
v 0.125000 0.877674 -0.498316
v 0.628795 0.509607 -0.440445
v 0.503795 0.509607 -0.440445
v 0.628795 0.634607 -0.440445
v 0.750000 0.377674 -0.498316
v 0.628795 0.759607 -0.440445
v 0.750000 0.752674 -0.498316
v 1.000000 0.002674 -0.498316
v 1.000000 0.127674 -0.498316
v 0.750000 0.127674 -0.498316
v 0.625000 0.127674 -0.498316
v 0.250000 0.752674 -0.498316
v 0.234215 0.491988 -0.440536
v 0.234215 0.366988 -0.440536
v 0.125000 0.377674 -0.498316
v 0.000000 0.877674 -0.498316
v 0.250000 0.377674 -0.498316
v 0.250000 0.252674 -0.498316
v 0.375000 0.377674 -0.498316
v 0.503795 0.884607 -0.440445
v 0.500000 1.002674 -0.498316
v 0.500000 0.252674 -0.498316
v 0.500000 0.377674 -0.498316
v 0.484215 0.241988 -0.440536
v 0.359215 0.241988 -0.440536
v 0.359215 0.366988 -0.440536
v 0.750000 0.502674 -0.498316
v 0.750000 0.627674 -0.498316
v 0.625000 0.627674 -0.498316
v 0.484215 0.366988 -0.440536
v 0.359215 0.491988 -0.440536
v 0.484215 0.491988 -0.440536
v 0.503795 0.759607 -0.440445
v 0.625000 0.252674 -0.498316
v 0.625000 0.377674 -0.498316
v 1.000000 0.252674 -0.498316
v 0.125000 1.002674 -0.498316
v 0.000000 1.002674 -0.498316
v 0.500000 0.627674 -0.498316
v 0.500000 0.502674 -0.498316
v 0.500000 0.127674 -0.498316
v 0.375000 0.127674 -0.498316
v 0.500000 0.002674 -0.498316
v 0.875000 0.002674 -0.498316
v 0.625000 0.002674 -0.498316
v 0.750000 0.002674 -0.498316
v 0.109215 0.491988 -0.440536
v 0.878794 0.509607 -0.440445
v 0.503795 0.634607 -0.440445
v 0.500000 0.877674 -0.498316
v 0.250000 1.002674 -0.498316
v 0.250000 0.877674 -0.498316
v 0.375000 0.877674 -0.498316
v 0.625000 0.502674 -0.498316
v 0.375000 1.002674 -0.498316
v 0.375000 0.252674 -0.498316
v 0.484215 0.116988 -0.440536
v 0.875000 0.502674 -0.498316
vt 0.250000 0.500000
vt 0.250000 0.625000
vt 0.125000 0.625000
vt 0.250000 1.000000
vt 0.250000 0.875000
vt 0.375000 0.875000
vt 0.625000 1.000000
vt 0.500000 1.000000
vt 0.625000 0.875000
vt 0.250000 0.375000
vt 0.375000 0.375000
vt 0.500000 0.250000
vt 0.500000 0.375000
vt 0.500000 0.000000
vt 0.500000 0.125000
vt 0.375000 0.125000
vt 0.375000 0.000000
vt 0.750000 0.875000
vt 0.750000 0.750000
vt 0.875000 0.875000
vt 0.375000 0.250000
vt 0.250000 0.000000
vt 0.250000 0.125000
vt 0.125000 0.125000
vt 0.125000 1.000000
vt 0.000000 1.000000
vt 0.125000 0.875000
vt 0.625000 0.750000
vt 0.125000 0.750000
vt 0.250000 0.750000
vt 1.000000 1.000000
vt 0.875000 1.000000
vt 0.875000 0.750000
vt 0.875000 0.625000
vt 0.250000 0.250000
vt 0.750000 0.000000
vt 0.750000 0.125000
vt 0.625000 0.125000
vt 0.125000 0.000000
vt 0.625000 0.250000
vt 0.750000 0.250000
vt 0.625000 0.375000
vt 0.000000 0.625000
vt 0.000000 0.500000
vt 0.750000 0.500000
vt 0.625000 0.500000
vt 1.000000 0.250000
vt 0.875000 0.250000
vt 0.875000 0.125000
vt 0.500000 0.750000
vt 0.375000 0.750000
vt 0.375000 0.625000
vt 1.000000 0.125000
vt 0.875000 0.000000
vt 1.000000 0.000000
vt 0.000000 0.750000
vt 0.750000 0.625000
vt 0.625000 0.625000
vt 0.750000 1.000000
vt 0.000000 0.125000
vt 0.000000 0.000000
vt 0.375000 0.500000
vt 0.500000 0.500000
vt 0.875000 0.500000
vt 0.875000 0.375000
vt 1.000000 0.500000
vt 1.000000 0.875000
vt 1.000000 0.625000
vt 1.000000 0.750000
vt 0.625000 0.000000
vt 0.375000 1.000000
vt 0.000000 0.875000
vt 0.125000 0.500000
vt 0.000000 0.250000
vt 0.125000 0.250000
vt 0.125000 0.375000
vt 0.500000 0.625000
vt 0.000000 0.375000
vt 0.750000 0.375000
vt 1.000000 0.375000
vt 0.500000 0.875000
vn 0.0000 0.0000 1.0000
vn -0.6821 -0.6871 0.2503
vn -0.1173 -0.1164 -0.9863
vn -0.2164 -0.2205 -0.9511
vn -0.1958 -0.1958 0.9609
vn 0.2047 0.2047 0.9572
vn 0.0000 0.0000 -1.0000
vn -0.0586 -0.0582 -0.9966
vn 0.1236 0.1250 -0.9844
vn 0.2440 0.2368 -0.9404
vn 0.6856 0.6759 0.2705
vn -0.4312 -0.2059 -0.8784
vn -0.2035 -0.2035 0.9577
vn 0.0618 0.0625 -0.9961
vn 0.1921 0.1921 0.9624
vn 0.2397 0.4641 -0.8527
vn -0.2044 -0.4361 -0.8764
vn 0.4723 0.2368 -0.8490
usemtl Default_OBJ
s 1
f 1/1/1 2/2/1 3/3/2
f 4/4/3 5/5/4 6/6/2
f 7/7/1 8/8/5 9/9/1
f 1/1/1 10/10/1 11/11/1
f 12/12/1 13/13/1 11/11/1
f 14/14/6 15/15/1 16/16/1
f 17/17/1 14/14/6 16/16/1
f 18/18/1 19/19/1 20/20/1
f 12/12/1 21/21/1 16/16/1
f 22/22/1 23/23/1 24/24/1
f 25/25/7 26/26/7 27/27/8
f 28/28/1 19/19/1 9/9/1
f 29/29/4 30/30/2 27/27/8
f 31/31/1 32/32/1 20/20/1
f 33/33/1 19/19/1 34/34/1
f 23/23/1 35/35/1 24/24/1
f 36/36/9 37/37/10 38/38/11
f 39/39/1 22/22/1 24/24/1
f 40/40/1 41/41/11 42/42/1
f 43/43/12 44/44/13 3/3/2
f 45/45/1 46/46/1 42/42/1
f 47/47/9 48/48/10 49/49/14
f 50/50/1 51/51/1 52/52/1
f 53/53/7 47/47/9 49/49/14
f 54/54/7 55/55/7 49/49/14
f 50/50/1 28/28/1 9/9/1
f 12/12/1 40/40/1 42/42/1
f 56/56/3 29/29/4 27/27/8
f 45/45/1 57/57/1 58/58/1
f 59/59/1 18/18/1 20/20/1
f 60/60/1 61/61/1 24/24/1
f 62/62/1 63/63/1 52/52/1
f 46/46/1 63/63/1 42/42/1
f 64/64/1 45/45/1 65/65/11
f 66/66/15 64/64/1 65/65/11
f 67/67/1 31/31/1 20/20/1
f 68/68/1 69/69/1 34/34/1
f 57/57/1 19/19/1 58/58/1
f 70/70/16 36/36/9 38/38/11
f 37/37/10 41/41/11 38/38/11
f 71/71/17 4/4/3 6/6/2
f 5/5/4 30/30/2 6/6/2
f 13/13/1 63/63/1 11/11/1
f 15/15/1 12/12/1 16/16/1
f 51/51/1 30/30/2 52/52/1
f 32/32/1 59/59/1 20/20/1
f 1/1/1 62/62/1 52/52/1
f 72/72/7 56/56/3 27/27/8
f 44/44/13 73/73/1 3/3/2
f 48/48/10 41/41/11 49/49/14
f 74/74/1 75/75/1 76/76/1
f 77/77/1 63/63/1 58/58/1
f 10/10/1 35/35/1 11/11/1
f 78/78/1 74/74/1 76/76/1
f 44/44/13 78/78/1 76/76/1
f 73/73/1 1/1/1 3/3/2
f 79/79/1 41/41/11 65/65/11
f 2/2/1 30/30/2 3/3/2
f 80/80/18 66/66/15 65/65/11
f 75/75/1 35/35/1 76/76/1
f 69/69/1 67/67/1 20/20/1
f 21/21/1 35/35/1 16/16/1
f 19/19/1 33/33/1 20/20/1
f 33/33/1 69/69/1 20/20/1
f 69/69/1 33/33/1 34/34/1
f 35/35/1 10/10/1 76/76/1
f 10/10/1 1/1/1 76/76/1
f 1/1/1 73/73/1 76/76/1
f 73/73/1 44/44/13 76/76/1
f 63/63/1 62/62/1 11/11/1
f 62/62/1 1/1/1 11/11/1
f 41/41/11 48/48/10 65/65/11
f 48/48/10 47/47/9 65/65/11
f 30/30/2 2/2/1 52/52/1
f 2/2/1 1/1/1 52/52/1
f 35/35/1 75/75/1 24/24/1
f 75/75/1 74/74/1 24/24/1
f 30/30/2 29/29/4 3/3/2
f 29/29/4 56/56/3 3/3/2
f 41/41/11 37/37/10 49/49/14
f 37/37/10 36/36/9 49/49/14
f 35/35/1 23/23/1 16/16/1
f 23/23/1 22/22/1 16/16/1
f 30/30/2 5/5/4 27/27/8
f 5/5/4 4/4/3 27/27/8
f 19/19/1 18/18/1 9/9/1
f 18/18/1 59/59/1 9/9/1
f 19/19/1 28/28/1 58/58/1
f 28/28/1 50/50/1 58/58/1
f 35/35/1 21/21/1 11/11/1
f 21/21/1 12/12/1 11/11/1
f 41/41/11 79/79/1 42/42/1
f 79/79/1 45/45/1 42/42/1
f 45/45/1 79/79/1 65/65/11
f 74/74/1 60/60/1 24/24/1
f 47/47/9 80/80/18 65/65/11
f 56/56/3 43/43/12 3/3/2
f 66/66/15 68/68/1 34/34/1
f 63/63/1 46/46/1 58/58/1
f 46/46/1 45/45/1 58/58/1
f 45/45/1 64/64/1 34/34/1
f 64/64/1 66/66/15 34/34/1
f 19/19/1 57/57/1 34/34/1
f 57/57/1 45/45/1 34/34/1
f 63/63/1 13/13/1 42/42/1
f 13/13/1 12/12/1 42/42/1
f 12/12/1 15/15/1 38/38/11
f 15/15/1 14/14/6 38/38/11
f 41/41/11 40/40/1 38/38/11
f 40/40/1 12/12/1 38/38/11
f 63/63/1 77/77/1 52/52/1
f 77/77/1 50/50/1 52/52/1
f 50/50/1 77/77/1 58/58/1
f 26/26/7 72/72/7 27/27/8
f 55/55/7 53/53/7 49/49/14
f 36/36/9 54/54/7 49/49/14
f 14/14/6 70/70/16 38/38/11
f 22/22/1 17/17/1 16/16/1
f 61/61/1 39/39/1 24/24/1
f 4/4/3 25/25/7 27/27/8
f 8/8/5 71/71/17 6/6/2
f 59/59/1 7/7/1 9/9/1
f 30/30/2 51/51/1 6/6/2
f 51/51/1 50/50/1 6/6/2
f 50/50/1 81/81/1 6/6/2
f 81/81/1 8/8/5 6/6/2
f 8/8/5 81/81/1 9/9/1
f 81/81/1 50/50/1 9/9/1
