# Blender v2.82 (sub 7) OBJ File: ''
# www.blender.org
mtllib half_fold.mtl
v 0.494970 0.752674 -0.510809
v 0.625000 0.752674 -0.512697
v 0.625000 0.877674 -0.512697
v 1.000000 0.752674 -0.512697
v 0.875000 0.752674 -0.512697
v 0.875000 0.627674 -0.512697
v 1.000000 0.377674 -0.512697
v 1.000000 0.502674 -0.512697
v 0.875000 0.377674 -0.512697
v 0.619763 0.752674 -0.503623
v 0.619763 0.627674 -0.503623
v 0.744556 0.502674 -0.496438
v 0.619763 0.502674 -0.503623
v 0.994143 0.502674 -0.482067
v 0.869349 0.502674 -0.489253
v 0.869349 0.627674 -0.489253
v 0.994143 0.627674 -0.482067
v 0.875000 0.252674 -0.512697
v 0.750000 0.252674 -0.512697
v 0.875000 0.127674 -0.512697
v 0.744556 0.627674 -0.496438
v 0.994143 0.752674 -0.482067
v 0.869349 0.752674 -0.489253
v 0.869349 0.877674 -0.489253
v 1.000000 0.877674 -0.512697
v 1.000000 1.002674 -0.512697
v 0.875000 0.877674 -0.512697
v 0.750000 0.377674 -0.512697
v 0.750000 0.877674 -0.512697
v 0.750000 0.752674 -0.512697
v 1.000000 0.002674 -0.512697
v 1.000000 0.127674 -0.512697
v 0.750000 0.127674 -0.512697
v 0.625000 0.127674 -0.512697
v 0.744556 0.752674 -0.496438
v 0.994143 0.252674 -0.482067
v 0.869349 0.252674 -0.489253
v 0.869349 0.377674 -0.489253
v 0.994143 0.877674 -0.482067
v 0.744556 0.377674 -0.496438
v 0.744556 0.252674 -0.496438
v 0.619763 0.377674 -0.503623
v 0.625000 1.002674 -0.512697
v 0.494970 1.002674 -0.510809
v 0.494970 0.252674 -0.510809
v 0.494970 0.377674 -0.510809
v 0.744556 0.002674 -0.496438
v 0.744556 0.127674 -0.496438
v 0.869349 0.127674 -0.489253
v 0.750000 0.502674 -0.512697
v 0.750000 0.627674 -0.512697
v 0.625000 0.627674 -0.512697
v 0.869349 0.002674 -0.489253
v 0.994143 0.127674 -0.482067
v 0.994143 0.002674 -0.482067
v 0.750000 1.002674 -0.512697
v 0.625000 0.252674 -0.512697
v 0.625000 0.377674 -0.512697
v 1.000000 0.252674 -0.512697
v 0.869349 1.002674 -0.489253
v 0.994143 1.002674 -0.482067
v 0.494970 0.627674 -0.510809
v 0.494970 0.502674 -0.510809
v 0.494970 0.127674 -0.510809
v 0.619763 0.127674 -0.503623
v 0.494970 0.002674 -0.510809
v 0.875000 0.002674 -0.512697
v 0.625000 0.002674 -0.512697
v 0.750000 0.002674 -0.512697
v 0.994143 0.377674 -0.482067
v 1.000000 0.627674 -0.512697
v 0.875000 1.002674 -0.512697
v 0.494970 0.877674 -0.510809
v 0.744556 1.002674 -0.496438
v 0.744556 0.877674 -0.496438
v 0.619763 0.877674 -0.503623
v 0.625000 0.502674 -0.512697
v 0.619763 1.002674 -0.503623
v 0.619763 0.252674 -0.503623
v 0.619763 0.002674 -0.503623
v 0.875000 0.502674 -0.512697
vt 0.250000 0.500000
vt 0.250000 0.625000
vt 0.125000 0.625000
vt 0.250000 1.000000
vt 0.250000 0.875000
vt 0.375000 0.875000
vt 0.625000 1.000000
vt 0.500000 1.000000
vt 0.625000 0.875000
vt 0.250000 0.375000
vt 0.375000 0.375000
vt 0.500000 0.250000
vt 0.500000 0.375000
vt 0.500000 0.000000
vt 0.500000 0.125000
vt 0.375000 0.125000
vt 0.375000 0.000000
vt 0.750000 0.875000
vt 0.750000 0.750000
vt 0.875000 0.875000
vt 0.375000 0.250000
vt 0.250000 0.000000
vt 0.250000 0.125000
vt 0.125000 0.125000
vt 0.125000 1.000000
vt 0.000000 1.000000
vt 0.125000 0.875000
vt 0.625000 0.750000
vt 0.125000 0.750000
vt 0.250000 0.750000
vt 1.000000 1.000000
vt 0.875000 1.000000
vt 0.875000 0.750000
vt 0.875000 0.625000
vt 0.250000 0.250000
vt 0.750000 0.000000
vt 0.750000 0.125000
vt 0.625000 0.125000
vt 0.125000 0.000000
vt 0.625000 0.250000
vt 0.750000 0.250000
vt 0.625000 0.375000
vt 0.000000 0.625000
vt 0.000000 0.500000
vt 0.750000 0.500000
vt 0.625000 0.500000
vt 1.000000 0.250000
vt 0.875000 0.250000
vt 0.875000 0.125000
vt 0.500000 0.750000
vt 0.375000 0.750000
vt 0.375000 0.625000
vt 1.000000 0.125000
vt 0.875000 0.000000
vt 1.000000 0.000000
vt 0.000000 0.750000
vt 0.750000 0.625000
vt 0.625000 0.625000
vt 0.750000 1.000000
vt 0.000000 0.125000
vt 0.000000 0.000000
vt 0.375000 0.500000
vt 0.500000 0.500000
vt 0.875000 0.500000
vt 0.875000 0.375000
vt 1.000000 0.500000
vt 1.000000 0.875000
vt 1.000000 0.625000
vt 1.000000 0.750000
vt 0.625000 0.000000
vt 0.375000 1.000000
vt 0.000000 0.875000
vt 0.125000 0.500000
vt 0.000000 0.250000
vt 0.125000 0.250000
vt 0.125000 0.375000
vt 0.500000 0.625000
vt 0.000000 0.375000
vt 0.750000 0.375000
vt 1.000000 0.375000
vt 0.500000 0.875000
vn 0.9998 -0.0000 0.0215
vn 0.0073 -0.0000 1.0000
vn 0.0000 -0.0000 1.0000
vn 0.0575 0.0000 -0.9983
usemtl Default_OBJ.001
s 1
f 1/1/1 2/2/2 3/3/2
f 4/4/3 5/5/3 6/6/3
f 7/7/3 8/8/3 9/9/3
f 1/1/1 10/10/4 11/11/4
f 12/12/4 13/13/4 11/11/4
f 14/14/4 15/15/4 16/16/4
f 17/17/4 14/14/4 16/16/4
f 18/18/3 19/19/3 20/20/3
f 12/12/4 21/21/4 16/16/4
f 22/22/4 23/23/4 24/24/4
f 25/25/3 26/26/3 27/27/3
f 28/28/3 19/19/3 9/9/3
f 29/29/3 30/30/3 27/27/3
f 31/31/3 32/32/3 20/20/3
f 33/33/3 19/19/3 34/34/2
f 23/23/4 35/35/4 24/24/4
f 36/36/4 37/37/4 38/38/4
f 39/39/4 22/22/4 24/24/4
f 40/40/4 41/41/4 42/42/4
f 43/43/2 44/44/1 3/3/2
f 45/45/1 46/46/1 42/42/4
f 47/47/4 48/48/4 49/49/4
f 50/50/3 51/51/3 52/52/2
f 53/53/4 47/47/4 49/49/4
f 54/54/4 55/55/4 49/49/4
f 50/50/3 28/28/3 9/9/3
f 12/12/4 40/40/4 42/42/4
f 56/56/3 29/29/3 27/27/3
f 45/45/1 57/57/2 58/58/2
f 59/59/3 18/18/3 20/20/3
f 60/60/4 61/61/4 24/24/4
f 62/62/1 63/63/1 52/52/2
f 46/46/1 63/63/1 42/42/4
f 64/64/1 45/45/1 65/65/4
f 66/66/1 64/64/1 65/65/4
f 67/67/3 31/31/3 20/20/3
f 68/68/2 69/69/3 34/34/2
f 57/57/2 19/19/3 58/58/2
f 70/70/4 36/36/4 38/38/4
f 37/37/4 41/41/4 38/38/4
f 71/71/3 4/4/3 6/6/3
f 5/5/3 30/30/3 6/6/3
f 13/13/4 63/63/1 11/11/4
f 15/15/4 12/12/4 16/16/4
f 51/51/3 30/30/3 52/52/2
f 32/32/3 59/59/3 20/20/3
f 1/1/1 62/62/1 52/52/2
f 72/72/3 56/56/3 27/27/3
f 44/44/1 73/73/1 3/3/2
f 48/48/4 41/41/4 49/49/4
f 74/74/4 75/75/4 76/76/4
f 77/77/2 63/63/1 58/58/2
f 10/10/4 35/35/4 11/11/4
f 78/78/4 74/74/4 76/76/4
f 44/44/1 78/78/4 76/76/4
f 73/73/1 1/1/1 3/3/2
f 79/79/4 41/41/4 65/65/4
f 2/2/2 30/30/3 3/3/2
f 80/80/4 66/66/1 65/65/4
f 75/75/4 35/35/4 76/76/4
f 69/69/3 67/67/3 20/20/3
f 21/21/4 35/35/4 16/16/4
f 19/19/3 33/33/3 20/20/3
f 33/33/3 69/69/3 20/20/3
f 69/69/3 33/33/3 34/34/2
f 35/35/4 10/10/4 76/76/4
f 10/10/4 1/1/1 76/76/4
f 1/1/1 73/73/1 76/76/4
f 73/73/1 44/44/1 76/76/4
f 63/63/1 62/62/1 11/11/4
f 62/62/1 1/1/1 11/11/4
f 41/41/4 48/48/4 65/65/4
f 48/48/4 47/47/4 65/65/4
f 30/30/3 2/2/2 52/52/2
f 2/2/2 1/1/1 52/52/2
f 35/35/4 75/75/4 24/24/4
f 75/75/4 74/74/4 24/24/4
f 30/30/3 29/29/3 3/3/2
f 29/29/3 56/56/3 3/3/2
f 41/41/4 37/37/4 49/49/4
f 37/37/4 36/36/4 49/49/4
f 35/35/4 23/23/4 16/16/4
f 23/23/4 22/22/4 16/16/4
f 30/30/3 5/5/3 27/27/3
f 5/5/3 4/4/3 27/27/3
f 19/19/3 18/18/3 9/9/3
f 18/18/3 59/59/3 9/9/3
f 19/19/3 28/28/3 58/58/2
f 28/28/3 50/50/3 58/58/2
f 35/35/4 21/21/4 11/11/4
f 21/21/4 12/12/4 11/11/4
f 41/41/4 79/79/4 42/42/4
f 79/79/4 45/45/1 42/42/4
f 45/45/1 79/79/4 65/65/4
f 74/74/4 60/60/4 24/24/4
f 47/47/4 80/80/4 65/65/4
f 56/56/3 43/43/2 3/3/2
f 66/66/1 68/68/2 34/34/2
f 63/63/1 46/46/1 58/58/2
f 46/46/1 45/45/1 58/58/2
f 45/45/1 64/64/1 34/34/2
f 64/64/1 66/66/1 34/34/2
f 19/19/3 57/57/2 34/34/2
f 57/57/2 45/45/1 34/34/2
f 63/63/1 13/13/4 42/42/4
f 13/13/4 12/12/4 42/42/4
f 12/12/4 15/15/4 38/38/4
f 15/15/4 14/14/4 38/38/4
f 41/41/4 40/40/4 38/38/4
f 40/40/4 12/12/4 38/38/4
f 63/63/1 77/77/2 52/52/2
f 77/77/2 50/50/3 52/52/2
f 50/50/3 77/77/2 58/58/2
f 26/26/3 72/72/3 27/27/3
f 55/55/4 53/53/4 49/49/4
f 36/36/4 54/54/4 49/49/4
f 14/14/4 70/70/4 38/38/4
f 22/22/4 17/17/4 16/16/4
f 61/61/4 39/39/4 24/24/4
f 4/4/3 25/25/3 27/27/3
f 8/8/3 71/71/3 6/6/3
f 59/59/3 7/7/3 9/9/3
f 30/30/3 51/51/3 6/6/3
f 51/51/3 50/50/3 6/6/3
f 50/50/3 81/81/3 6/6/3
f 81/81/3 8/8/3 6/6/3
f 8/8/3 81/81/3 9/9/3
f 81/81/3 50/50/3 9/9/3
