# Blender v2.82 (sub 7) OBJ File: ''
# www.blender.org
mtllib half_new.mtl
o crewneck_final
v -0.840891 0.039631 0.162004
v -0.763941 0.025056 0.073821
v -0.823395 -0.010540 0.108395
v -0.825993 0.065604 0.282012
v -0.784940 0.134624 0.194912
v -0.859379 0.101765 0.214495
v -0.457440 -0.011040 -0.284412
v -0.533823 -0.011040 -0.374150
v -0.450758 -0.011040 -0.367468
v -0.623570 -0.011040 -0.297777
v -0.699951 -0.011040 -0.387523
v -0.616888 -0.011040 -0.380835
v -0.789699 -0.011040 -0.311158
v -0.866080 -0.011040 -0.400903
v -0.783015 -0.011040 -0.394213
v -0.470786 -0.011040 -0.118310
v -0.547182 -0.011040 -0.208039
v -0.464116 -0.011040 -0.201361
v -0.636927 -0.011040 -0.131676
v -0.713317 -0.011040 -0.221415
v -0.630249 -0.011040 -0.214724
v -0.796384 -0.011040 -0.228113
v -0.886144 -0.011040 -0.151783
v -0.879452 -0.011040 -0.234812
v -0.484106 -0.011040 0.047879
v -0.560517 -0.011040 -0.041930
v -0.477448 -0.011040 -0.035243
v -0.650308 -0.011040 0.034368
v -0.726695 -0.011040 -0.055346
v -0.643607 -0.011040 -0.048636
v -0.809773 -0.011040 -0.062053
v -0.899564 -0.011040 0.014245
v -0.892847 -0.011040 -0.068765
v -0.640641 0.051159 0.177637
v -0.574195 -0.010533 0.134989
v -0.655934 -0.010540 0.124388
v -0.490779 -0.011040 0.131206
v -0.580844 -0.011040 0.206577
v -0.573973 -0.011040 0.124015
v -0.663735 -0.011040 0.200290
v -0.740113 -0.011040 0.110684
v -0.657040 -0.011040 0.117343
v -0.829837 -0.011040 0.187048
v -0.906295 -0.011040 0.097255
v -0.823180 -0.011040 0.103986
v -0.996086 -0.010541 0.173728
v -0.906423 -0.010540 0.097002
v -0.989427 -0.011040 0.090463
v -0.678644 0.061880 0.279729
v -0.561778 0.067255 0.263889
v -0.627314 0.110090 0.234863
v -0.531999 0.074497 0.339997
v -0.586274 -0.011040 0.289112
v -0.507504 0.010629 0.292294
v -0.994814 0.011259 0.252733
v -0.902729 0.053415 0.313363
v -0.927298 0.056839 0.233680
v -0.921237 0.017434 0.160870
v -0.919502 -0.011040 0.262777
v -0.912847 -0.011040 0.180154
v -0.985088 0.048010 0.326696
v -0.661048 -0.011040 0.275984
v -0.498091 -0.011040 0.214546
v -0.577420 0.006096 0.209264
v -0.611698 0.052147 0.328992
v -0.694862 0.151297 0.207668
v -0.710235 0.089638 0.152875
v -0.743460 0.088512 0.234129
v -0.982650 -0.011040 0.007515
v -0.816479 -0.011040 0.020963
v -0.733401 -0.011040 0.027665
v -0.746758 -0.011040 0.193792
v -0.567184 -0.011040 0.041121
v -0.680347 0.056682 0.082224
v -0.969208 -0.011040 -0.158487
v -0.975914 -0.011040 -0.075481
v -0.803074 -0.011040 -0.145077
v -0.720002 -0.011040 -0.138375
v -0.553853 -0.011040 -0.124986
v -0.955830 -0.011040 -0.324542
v -0.872765 -0.011040 -0.317852
v -0.962516 -0.011040 -0.241507
v -0.706635 -0.011040 -0.304466
v -0.540505 -0.011040 -0.291093
v -0.942458 -0.011040 -0.490652
v -0.859393 -0.011040 -0.483963
v -0.949144 -0.011040 -0.407592
v -0.776328 -0.011040 -0.477274
v -0.693265 -0.011040 -0.470584
v -0.610203 -0.011040 -0.463897
v -0.527139 -0.011040 -0.457212
v -0.444075 -0.011040 -0.450530
v -0.783122 0.087485 0.125691
v -0.859711 0.122643 0.230845
v -0.593945 0.017496 0.349102
v -0.928886 -0.011040 0.331591
v -0.648292 -0.011040 0.285021
v -0.787782 -0.011040 0.244843
v -0.823972 -0.011040 0.252677
v -0.844103 -0.011040 0.261422
v -0.835628 -0.011040 0.257740
v -0.859277 -0.011040 0.268356
v -0.888998 -0.011040 0.288643
v -0.916439 -0.011040 0.314481
v -0.894746 -0.011040 0.294208
v -0.780826 -0.011040 0.244728
v -0.750730 -0.011040 0.244172
v -0.689883 -0.011040 0.260259
v -0.599870 0.002730 0.335172
v -0.621000 -0.011040 0.309258
v -0.714222 -0.011040 0.250726
v -0.668879 -0.011040 0.271029
v -0.588397 0.027391 0.359923
v -0.937815 -0.008968 0.343176
v -0.858014 -0.011040 0.268458
v -0.679651 -0.011040 0.264212
vt 0.666667 0.916667
vt 0.583333 1.000000
vt 0.583333 0.916667
vt 0.833333 0.916667
vt 0.750000 1.000000
vt 0.750000 0.916667
vt 0.166667 0.250000
vt 0.083333 0.333333
vt 0.083333 0.250000
vt 0.166667 0.416667
vt 0.083333 0.500000
vt 0.083333 0.416667
vt 0.166667 0.583333
vt 0.083333 0.666667
vt 0.083333 0.583333
vt 0.333333 0.250000
vt 0.250000 0.333333
vt 0.250000 0.250000
vt 0.333333 0.416667
vt 0.250000 0.500000
vt 0.250000 0.416667
vt 0.250000 0.583333
vt 0.333333 0.666667
vt 0.250000 0.666667
vt 0.500000 0.250000
vt 0.416667 0.333333
vt 0.416667 0.250000
vt 0.500000 0.416667
vt 0.416667 0.500000
vt 0.416667 0.416667
vt 0.416667 0.583333
vt 0.500000 0.666667
vt 0.416667 0.666667
vt 0.666667 0.083333
vt 0.583333 0.166667
vt 0.583333 0.083333
vt 0.583333 0.250000
vt 0.666667 0.333333
vt 0.583333 0.333333
vt 0.666667 0.416667
vt 0.583333 0.500000
vt 0.583333 0.416667
vt 0.666667 0.583333
vt 0.583333 0.666667
vt 0.583333 0.583333
vt 0.666667 0.750000
vt 0.583333 0.833333
vt 0.583333 0.750000
vt 0.833333 0.083333
vt 0.750000 0.166667
vt 0.750000 0.083333
vt 0.833333 0.250000
vt 0.750000 0.333333
vt 0.750000 0.250000
vt 0.750000 0.750000
vt 0.833333 0.833333
vt 0.750000 0.833333
vt 0.666667 0.833333
vt 0.750000 0.666667
vt 0.666667 0.666667
vt 0.833333 0.750000
vt 0.741866 0.408533
vt 0.666667 0.250000
vt 0.666667 0.166667
vt 0.833333 0.166667
vt 0.750000 0.000000
vt 0.666667 0.000000
vt 0.833333 0.000000
vt 0.500000 0.750000
vt 0.500000 0.583333
vt 0.500000 0.500000
vt 0.666667 0.500000
vt 0.500000 0.333333
vt 0.583333 0.000000
vt 0.333333 0.750000
vt 0.416667 0.750000
vt 0.333333 0.583333
vt 0.333333 0.500000
vt 0.333333 0.333333
vt 0.166667 0.750000
vt 0.166667 0.666667
vt 0.250000 0.750000
vt 0.166667 0.500000
vt 0.166667 0.333333
vt 0.000000 0.750000
vt 0.000000 0.666667
vt 0.083333 0.750000
vt 0.000000 0.583333
vt 0.000000 0.500000
vt 0.000000 0.416667
vt 0.000000 0.333333
vt 0.000000 0.250000
vt 0.666667 1.000000
vt 0.833333 1.000000
vt 0.819517 0.333333
vt 0.819518 0.666667
vt 0.750000 0.395259
vt 0.720811 0.536780
vt 0.731540 0.572147
vt 0.741866 0.591467
vt 0.737519 0.583333
vt 0.750000 0.606007
vt 0.772407 0.633310
vt 0.800976 0.656756
vt 0.778421 0.638245
vt 0.720130 0.529870
vt 0.717188 0.500000
vt 0.728372 0.438295
vt 0.800976 0.343244
vt 0.772407 0.366690
vt 0.720811 0.463220
vt 0.737519 0.416667
vt 0.833333 0.325948
vt 0.833333 0.674052
vt 0.750000 0.604741
vt 0.731539 0.427853
vn -0.6347 0.4499 -0.6282
vn -0.2160 0.8123 0.5418
vn 0.0000 -1.0000 -0.0000
vn 0.0992 0.6359 -0.7653
vn -0.0055 1.0000 -0.0064
vn 0.0749 0.6354 0.7685
vn 0.1220 -0.5635 0.8171
vn -0.5109 0.8376 0.1935
vn -0.5071 0.8401 0.1925
vn -0.3758 0.8948 -0.2409
vn 0.0010 -1.0000 0.0000
vn -0.0061 -1.0000 0.0003
vn 0.0010 -1.0000 0.0015
vn -0.3081 -0.8352 0.4555
vn -0.0256 -0.9638 0.2655
vn 0.1859 0.6277 -0.7560
vn 0.4681 0.7115 0.5240
vn 0.6368 0.4582 -0.6201
vn 0.5202 0.4912 -0.6987
vn 0.5199 0.4899 -0.6998
vn 0.5183 0.4830 -0.7058
vn -0.0881 0.4440 0.8917
vn -0.0046 -1.0000 0.0040
vn -0.0040 0.9758 -0.2186
vn 0.8856 0.4306 0.1738
vn -0.6859 0.3396 -0.6436
vn -0.6856 0.3384 -0.6446
vn -0.6837 0.3321 -0.6498
vn -0.1574 0.6095 -0.7770
vn -0.5033 0.8426 0.1914
vn 0.0535 0.9192 -0.3902
vn -0.6833 0.3309 -0.6509
vn -0.2047 -0.7179 -0.6654
vn 0.6215 0.7698 -0.1454
vn -0.3796 0.8118 -0.4436
vn -0.0158 0.9766 0.2145
vn 0.6535 -0.6477 0.3917
vn -0.1280 0.8948 -0.4278
vn -0.5860 0.6912 -0.4229
vn -0.5829 0.6933 -0.4237
vn -0.3058 -0.9165 0.2578
vn -0.7168 -0.6904 -0.0978
vn 0.2645 -0.9642 0.0174
vn 0.7421 0.6635 -0.0951
vn -0.0522 0.5847 -0.8096
vn 0.5903 0.4484 -0.6711
vn 0.5689 0.5031 -0.6506
vn -0.1438 0.7519 0.6434
vn 0.2099 0.9775 0.0184
vn 0.5179 0.4817 -0.7069
vn -0.4561 0.7299 -0.5091
vn -0.5799 0.6953 -0.4246
vn 0.0444 0.8896 0.4545
vn -0.1802 0.6882 -0.7028
vn 0.1932 -0.9230 0.3329
vn 0.6718 -0.6850 0.2820
vn -0.6521 -0.6526 -0.3859
vn 0.6696 -0.6339 0.3871
usemtl Default_OBJ.004
s 1
f 1/1/1 2/2/1 3/3/1
f 4/4/2 5/5/2 6/6/2
f 7/7/3 8/8/3 9/9/3
f 10/10/3 11/11/3 12/12/3
f 13/13/3 14/14/3 15/15/3
f 16/16/3 17/17/3 18/18/3
f 19/19/3 20/20/3 21/21/3
f 22/22/3 23/23/3 24/24/3
f 25/25/3 26/26/3 27/27/3
f 28/28/3 29/29/3 30/30/3
f 31/31/3 32/32/3 33/33/3
f 34/34/4 35/35/4 36/36/4
f 37/37/3 38/38/3 39/39/3
f 40/40/3 41/41/3 42/42/3
f 43/43/3 44/44/3 45/45/3
f 46/46/5 47/47/5 48/48/5
f 49/49/6 50/50/6 51/51/6
f 52/52/7 53/53/7 54/54/7
f 55/55/8 56/56/9 57/57/9
f 55/55/10 58/58/10 46/46/10
f 59/59/11 46/46/12 60/60/13
f 59/59/14 61/61/14 55/55/14
f 62/62/3 40/40/3 38/38/3
f 54/54/15 38/38/15 63/63/15
f 50/50/16 63/63/16 64/64/16
f 65/65/17 54/54/17 50/50/17
f 51/51/18 64/64/18 34/34/18
f 66/66/19 34/34/20 67/67/21
f 68/68/22 51/51/22 66/66/22
f 44/44/3 69/69/3 32/32/3
f 60/60/13 48/48/23 44/44/3
f 70/70/3 44/44/3 32/32/3
f 41/41/3 70/70/3 71/71/3
f 72/72/3 45/45/3 41/41/3
f 42/42/3 71/71/3 28/28/3
f 39/39/3 28/28/3 73/73/3
f 39/39/3 40/40/3 42/42/3
f 37/37/3 73/73/3 25/25/3
f 64/64/24 37/37/24 35/35/24
f 67/67/25 36/36/25 74/74/25
f 33/33/3 75/75/3 23/23/3
f 32/32/3 76/76/3 33/33/3
f 77/77/3 33/33/3 23/23/3
f 29/29/3 77/77/3 78/78/3
f 29/29/3 70/70/3 31/31/3
f 30/30/3 78/78/3 19/19/3
f 26/26/3 19/19/3 79/79/3
f 73/73/3 30/30/3 26/26/3
f 27/27/3 79/79/3 16/16/3
f 24/24/3 80/80/3 81/81/3
f 23/23/3 82/82/3 24/24/3
f 22/22/3 81/81/3 13/13/3
f 20/20/3 13/13/3 83/83/3
f 20/20/3 77/77/3 22/22/3
f 21/21/3 83/83/3 10/10/3
f 17/17/3 10/10/3 84/84/3
f 79/79/3 21/21/3 17/17/3
f 18/18/3 84/84/3 7/7/3
f 14/14/3 85/85/3 86/86/3
f 81/81/3 87/87/3 14/14/3
f 15/15/3 86/86/3 88/88/3
f 11/11/3 88/88/3 89/89/3
f 83/83/3 15/15/3 11/11/3
f 12/12/3 89/89/3 90/90/3
f 8/8/3 90/90/3 91/91/3
f 84/84/3 12/12/3 8/8/3
f 9/9/3 91/91/3 92/92/3
f 6/6/26 93/93/27 1/1/28
f 58/58/29 6/6/29 1/1/29
f 56/56/9 6/6/30 57/57/9
f 58/58/31 3/3/31 47/47/31
f 1/1/28 93/93/27 2/2/32
f 4/4/33 94/94/33 5/5/33
f 7/7/3 84/84/3 8/8/3
f 10/10/3 83/83/3 11/11/3
f 13/13/3 81/81/3 14/14/3
f 16/16/3 79/79/3 17/17/3
f 19/19/3 78/78/3 20/20/3
f 22/22/3 77/77/3 23/23/3
f 25/25/3 73/73/3 26/26/3
f 28/28/3 71/71/3 29/29/3
f 31/31/3 70/70/3 32/32/3
f 34/34/34 64/64/34 35/35/34
f 37/37/3 63/63/3 38/38/3
f 40/40/3 72/72/3 41/41/3
f 43/43/3 60/60/13 44/44/3
f 46/46/35 58/58/35 47/47/35
f 49/49/36 65/65/36 50/50/36
f 52/52/37 95/95/37 53/53/37
f 55/55/38 61/61/38 56/56/38
f 55/55/39 57/57/40 58/58/40
f 59/59/41 55/55/41 46/46/41
f 96/96/42 61/61/42 59/59/42
f 38/38/3 97/97/3 62/62/3
f 54/54/43 53/53/43 38/38/43
f 50/50/44 54/54/44 63/63/44
f 65/65/45 52/52/45 54/54/45
f 51/51/46 50/50/46 64/64/46
f 66/66/47 51/51/47 34/34/47
f 68/68/48 49/49/48 51/51/48
f 44/44/3 48/48/23 69/69/3
f 60/60/13 46/46/12 48/48/23
f 70/70/3 45/45/3 44/44/3
f 41/41/3 45/45/3 70/70/3
f 72/72/3 43/43/3 45/45/3
f 42/42/3 41/41/3 71/71/3
f 39/39/3 42/42/3 28/28/3
f 39/39/3 38/38/3 40/40/3
f 37/37/3 39/39/3 73/73/3
f 64/64/49 63/63/49 37/37/49
f 67/67/21 34/34/20 36/36/50
f 33/33/3 76/76/3 75/75/3
f 32/32/3 69/69/3 76/76/3
f 77/77/3 31/31/3 33/33/3
f 29/29/3 31/31/3 77/77/3
f 29/29/3 71/71/3 70/70/3
f 30/30/3 29/29/3 78/78/3
f 26/26/3 30/30/3 19/19/3
f 73/73/3 28/28/3 30/30/3
f 27/27/3 26/26/3 79/79/3
f 24/24/3 82/82/3 80/80/3
f 23/23/3 75/75/3 82/82/3
f 22/22/3 24/24/3 81/81/3
f 20/20/3 22/22/3 13/13/3
f 20/20/3 78/78/3 77/77/3
f 21/21/3 20/20/3 83/83/3
f 17/17/3 21/21/3 10/10/3
f 79/79/3 19/19/3 21/21/3
f 18/18/3 17/17/3 84/84/3
f 14/14/3 87/87/3 85/85/3
f 81/81/3 80/80/3 87/87/3
f 15/15/3 14/14/3 86/86/3
f 11/11/3 15/15/3 88/88/3
f 83/83/3 13/13/3 15/15/3
f 12/12/3 11/11/3 89/89/3
f 8/8/3 12/12/3 90/90/3
f 84/84/3 10/10/3 12/12/3
f 9/9/3 8/8/3 91/91/3
f 6/6/51 5/5/51 93/93/51
f 58/58/40 57/57/40 6/6/52
f 56/56/53 4/4/53 6/6/53
f 58/58/54 1/1/54 3/3/54
f 98/98/3 99/99/3 43/43/3
f 100/100/3 43/43/3 101/101/3
f 102/102/3 59/59/11 60/60/13
f 103/103/3 59/59/11 102/102/3
f 104/104/3 59/59/11 105/105/3
f 106/106/3 72/72/3 107/107/3
f 108/108/3 72/72/3 40/40/3
f 109/109/55 110/110/55 53/53/55
f 111/111/3 72/72/3 108/108/3
f 62/62/3 112/112/3 40/40/3
f 52/52/56 113/113/56 95/95/56
f 96/96/57 114/114/57 61/61/57
f 38/38/3 53/53/3 97/97/3
f 43/43/3 106/106/3 98/98/3
f 99/99/3 101/101/3 43/43/3
f 100/100/3 60/60/13 43/43/3
f 60/60/13 100/100/3 102/102/3
f 100/100/3 115/115/3 102/102/3
f 103/103/3 105/105/3 59/59/11
f 104/104/3 96/96/3 59/59/11
f 106/106/3 43/43/3 72/72/3
f 40/40/3 112/112/3 116/116/3
f 116/116/3 108/108/3 40/40/3
f 53/53/58 95/95/58 109/109/58
f 110/110/3 97/97/3 53/53/3
f 111/111/3 107/107/3 72/72/3
o triangle_fold.001
v 0.056495 0.101247 0.031803
v 0.032058 0.163452 0.092790
v 0.086841 0.223676 0.053316
v -0.041254 0.350070 0.275753
v -0.016816 0.287864 0.214765
v -0.071599 0.227642 0.254240
v -0.205603 0.169401 0.394177
v -0.150820 0.229625 0.354702
v -0.181165 0.107196 0.333189
v 0.080933 0.039041 -0.029185
v -0.014694 -0.008806 0.005448
v 0.015652 0.113622 0.026961
v -0.039131 0.053399 0.066435
v 0.125218 0.234068 -0.051989
v 0.070435 0.173845 -0.012514
v 0.094872 0.111639 -0.073502
v 0.149655 0.171862 -0.112976
v -0.235948 0.046973 0.372664
v -0.252355 -0.002858 0.306834
v -0.331575 -0.000875 0.407296
v 0.040089 0.051416 -0.034027
v 0.174092 0.109656 -0.173964
v 0.119309 0.049433 -0.134489
v 0.143747 -0.012772 -0.195477
v 0.013530 0.410293 0.236278
v 0.068311 0.470514 0.196804
v 0.037967 0.348087 0.175291
v -0.156728 0.044990 0.272202
v 0.062404 0.285881 0.114303
v 0.007621 0.225659 0.153778
v -0.410795 0.001108 0.507759
v -0.315169 0.048956 0.473126
v -0.276792 0.059348 0.367822
v -0.222009 0.119571 0.328347
v 0.064526 -0.010789 -0.095015
v 0.076344 0.358479 0.069986
v 0.021561 0.298257 0.109461
v 0.045998 0.236051 0.048473
v 0.198530 0.047450 -0.234952
v -0.008785 0.175828 0.087948
v -0.033223 0.238033 0.148936
v -0.063568 0.115605 0.127423
v 0.141622 0.283896 0.013842
v 0.166060 0.221691 -0.047146
v -0.142788 0.117588 0.227885
v -0.118351 0.055382 0.166897
v -0.082097 0.362445 0.270911
v -0.057660 0.300240 0.209923
v -0.002877 0.360462 0.170448
v -0.101945 0.105213 0.232727
v -0.047162 0.165435 0.193253
v -0.022725 0.103230 0.132265
v -0.027314 0.422668 0.231436
v 0.051906 0.420685 0.130974
v 0.027469 0.482891 0.191961
v 0.117185 0.346103 0.074829
v -0.197572 0.057365 0.267360
v -0.173134 -0.004841 0.206372
v -0.260386 0.109179 0.433651
v 0.239371 0.035073 -0.230108
v 0.222966 -0.014753 -0.295937
v 0.001712 0.041024 0.071278
v -0.093914 -0.006823 0.105910
v -0.167226 0.179794 0.288872
v -0.112443 0.240016 0.249398
v -0.191663 0.241999 0.349860
v -0.356012 0.061331 0.468284
v -0.246446 0.181777 0.389335
v -0.301229 0.121554 0.428809
v 0.100781 0.296274 0.008999
v -0.096037 0.289847 0.315228
v 0.092748 0.408308 0.135817
v 0.111278 0.161469 -0.007672
v 0.214934 0.097279 -0.169121
v 0.160153 0.037058 -0.129647
v 0.135716 0.099264 -0.068659
v -0.077508 0.043007 0.171740
v 0.190497 0.159485 -0.108133
v -0.088006 0.177811 0.188410
v -0.136880 0.302223 0.310385
v -0.126382 0.167418 0.293715
vt 0.250000 0.500000
vt 0.250000 0.625000
vt 0.125000 0.625000
vt 0.250000 1.000000
vt 0.250000 0.875000
vt 0.375000 0.875000
vt 0.625000 1.000000
vt 0.500000 1.000000
vt 0.625000 0.875000
vt 0.250000 0.375000
vt 0.375000 0.375000
vt 0.500000 0.250000
vt 0.500000 0.375000
vt 0.500000 0.000000
vt 0.500000 0.125000
vt 0.375000 0.125000
vt 0.375000 0.000000
vt 0.750000 0.875000
vt 0.750000 0.750000
vt 0.875000 0.875000
vt 0.375000 0.250000
vt 0.250000 0.000000
vt 0.250000 0.125000
vt 0.125000 0.125000
vt 0.125000 1.000000
vt 0.000000 1.000000
vt 0.125000 0.875000
vt 0.625000 0.750000
vt 0.125000 0.750000
vt 0.250000 0.750000
vt 1.000000 1.000000
vt 0.875000 1.000000
vt 0.875000 0.750000
vt 0.875000 0.625000
vt 0.250000 0.250000
vt 0.750000 0.000000
vt 0.750000 0.125000
vt 0.625000 0.125000
vt 0.125000 0.000000
vt 0.625000 0.250000
vt 0.750000 0.250000
vt 0.625000 0.375000
vt 0.000000 0.625000
vt 0.000000 0.500000
vt 0.750000 0.500000
vt 0.625000 0.500000
vt 1.000000 0.250000
vt 0.875000 0.250000
vt 0.875000 0.125000
vt 0.500000 0.750000
vt 0.375000 0.750000
vt 0.375000 0.625000
vt 1.000000 0.125000
vt 0.875000 0.000000
vt 1.000000 0.000000
vt 0.000000 0.750000
vt 0.750000 0.625000
vt 0.625000 0.625000
vt 0.750000 1.000000
vt 0.000000 0.125000
vt 0.000000 0.000000
vt 0.375000 0.500000
vt 0.500000 0.500000
vt 0.875000 0.500000
vt 0.875000 0.375000
vt 1.000000 0.500000
vt 1.000000 0.875000
vt 1.000000 0.625000
vt 1.000000 0.750000
vt 0.625000 0.000000
vt 0.375000 1.000000
vt 0.000000 0.875000
vt 0.125000 0.500000
vt 0.000000 0.250000
vt 0.125000 0.250000
vt 0.125000 0.375000
vt 0.500000 0.625000
vt 0.000000 0.375000
vt 0.750000 0.375000
vt 1.000000 0.375000
vt 0.500000 0.875000
vn -0.7486 0.2903 -0.5961
vn -0.5041 0.4955 -0.7074
vn 0.7486 -0.2903 0.5961
vn -0.5236 0.7370 -0.4274
vn -0.7904 0.5669 -0.2321
usemtl Default_OBJ.002
s 1
f 117/117/59 118/118/59 119/119/59
f 120/120/59 121/121/59 122/122/59
f 123/123/59 124/124/59 125/125/59
f 117/117/60 126/126/60 127/127/60
f 128/128/61 129/129/61 127/127/61
f 130/130/61 131/131/61 132/132/61
f 133/133/61 130/130/61 132/132/61
f 134/134/62 135/135/62 136/136/62
f 128/128/61 137/137/61 132/132/61
f 138/138/61 139/139/61 140/140/61
f 141/141/59 142/142/59 143/143/59
f 144/144/60 135/135/60 125/125/60
f 145/145/59 146/146/59 143/143/59
f 147/147/62 148/148/62 136/136/62
f 149/149/61 135/135/61 150/150/61
f 139/139/61 151/151/61 140/140/61
f 152/152/61 153/153/61 154/154/61
f 155/155/61 138/138/61 140/140/61
f 156/156/61 157/157/61 158/158/61
f 159/159/59 160/160/59 119/119/59
f 161/161/61 162/162/61 158/158/61
f 163/163/61 164/164/61 165/165/61
f 166/166/59 167/167/59 168/168/59
f 169/169/61 163/163/61 165/165/61
f 170/170/61 171/171/61 165/165/61
f 166/166/59 144/144/59 125/125/59
f 128/128/61 156/156/61 158/158/61
f 172/172/59 145/145/59 143/143/59
f 161/161/61 173/173/61 174/174/61
f 175/175/60 134/134/60 136/136/60
f 176/176/62 177/177/62 140/140/62
f 178/178/60 179/179/60 168/168/60
f 162/162/61 179/179/61 158/158/61
f 180/180/61 161/161/61 181/181/61
f 182/182/61 180/180/61 181/181/61
f 183/183/61 147/147/61 136/136/61
f 184/184/61 185/185/61 150/150/61
f 173/173/61 135/135/61 174/174/61
f 186/186/61 152/152/61 154/154/61
f 153/153/61 157/157/61 154/154/61
f 187/187/59 120/120/59 122/122/59
f 121/121/59 146/146/59 122/122/59
f 129/129/61 179/179/61 127/127/61
f 131/131/61 128/128/61 132/132/61
f 167/167/59 146/146/59 168/168/59
f 148/148/63 175/175/63 136/136/63
f 117/117/59 178/178/59 168/168/59
f 188/188/59 172/172/59 143/143/59
f 160/160/59 189/189/59 119/119/59
f 164/164/61 157/157/61 165/165/61
f 190/190/59 191/191/59 192/192/59
f 193/193/62 179/179/62 174/174/62
f 126/126/62 151/151/62 127/127/62
f 194/194/59 190/190/59 192/192/59
f 160/160/59 194/194/59 192/192/59
f 189/189/59 117/117/59 119/119/59
f 195/195/61 157/157/61 181/181/61
f 118/118/59 146/146/59 119/119/59
f 196/196/61 182/182/61 181/181/61
f 191/191/60 151/151/60 192/192/60
f 185/185/61 183/183/61 136/136/61
f 137/137/61 151/151/61 132/132/61
f 135/135/61 149/149/61 136/136/61
f 149/149/61 185/185/61 136/136/61
f 185/185/61 149/149/61 150/150/61
f 151/151/63 126/126/63 192/192/63
f 126/126/59 117/117/59 192/192/59
f 117/117/59 189/189/59 192/192/59
f 189/189/59 160/160/59 192/192/59
f 179/179/62 178/178/62 127/127/62
f 178/178/63 117/117/63 127/127/63
f 157/157/61 164/164/61 181/181/61
f 164/164/61 163/163/61 181/181/61
f 146/146/59 118/118/59 168/168/59
f 118/118/59 117/117/59 168/168/59
f 151/151/62 191/191/62 140/140/62
f 191/191/63 190/190/63 140/140/63
f 146/146/59 145/145/59 119/119/59
f 145/145/59 172/172/59 119/119/59
f 157/157/61 153/153/61 165/165/61
f 153/153/61 152/152/61 165/165/61
f 151/151/61 139/139/61 132/132/61
f 139/139/61 138/138/61 132/132/61
f 146/146/59 121/121/59 143/143/59
f 121/121/59 120/120/59 143/143/59
f 135/135/63 134/134/63 125/125/63
f 134/134/59 175/175/59 125/125/59
f 135/135/62 144/144/62 174/174/62
f 144/144/63 166/166/63 174/174/63
f 151/151/61 137/137/61 127/127/61
f 137/137/61 128/128/61 127/127/61
f 157/157/61 195/195/61 158/158/61
f 195/195/61 161/161/61 158/158/61
f 161/161/61 195/195/61 181/181/61
f 190/190/60 176/176/60 140/140/60
f 163/163/61 196/196/61 181/181/61
f 172/172/59 159/159/59 119/119/59
f 182/182/61 184/184/61 150/150/61
f 179/179/61 162/162/61 174/174/61
f 162/162/61 161/161/61 174/174/61
f 161/161/61 180/180/61 150/150/61
f 180/180/61 182/182/61 150/150/61
f 135/135/61 173/173/61 150/150/61
f 173/173/61 161/161/61 150/150/61
f 179/179/61 129/129/61 158/158/61
f 129/129/61 128/128/61 158/158/61
f 128/128/61 131/131/61 154/154/61
f 131/131/61 130/130/61 154/154/61
f 157/157/61 156/156/61 154/154/61
f 156/156/61 128/128/61 154/154/61
f 179/179/63 193/193/63 168/168/63
f 193/193/59 166/166/59 168/168/59
f 166/166/60 193/193/60 174/174/60
f 142/142/59 188/188/59 143/143/59
f 171/171/61 169/169/61 165/165/61
f 152/152/61 170/170/61 165/165/61
f 130/130/61 186/186/61 154/154/61
f 138/138/61 133/133/61 132/132/61
f 177/177/61 155/155/61 140/140/61
f 120/120/59 141/141/59 143/143/59
f 124/124/59 187/187/59 122/122/59
f 175/175/59 123/123/59 125/125/59
f 146/146/59 167/167/59 122/122/59
f 167/167/59 166/166/59 122/122/59
f 166/166/59 197/197/59 122/122/59
f 197/197/59 124/124/59 122/122/59
f 124/124/59 197/197/59 125/125/59
f 197/197/59 166/166/59 125/125/59
