# Blender v2.82 (sub 7) OBJ File: ''
# www.blender.org
mtllib sides_in.mtl
v 0.500000 0.752674 -0.502121
v 0.625000 0.752674 -0.502121
v 0.625000 0.877674 -0.502121
v 0.532789 0.752674 -0.460763
v 0.656178 0.752674 -0.480767
v 0.656178 0.627674 -0.480767
v 0.532789 0.377674 -0.460763
v 0.532789 0.502674 -0.460763
v 0.656178 0.377674 -0.480767
v 0.375000 0.752674 -0.502121
v 0.375000 0.627674 -0.502121
v 0.250000 0.502674 -0.502121
v 0.375000 0.502674 -0.502121
v 0.509075 0.502674 -0.469033
v 0.384791 0.502674 -0.482389
v 0.384791 0.627674 -0.482389
v 0.509075 0.627674 -0.469033
v 0.656178 0.252674 -0.480767
v 0.750000 0.252674 -0.502121
v 0.656179 0.127674 -0.480767
v 0.250000 0.627674 -0.502121
v 0.509075 0.752674 -0.469033
v 0.384791 0.752674 -0.482389
v 0.384791 0.877674 -0.482389
v 0.532789 0.877674 -0.460763
v 0.532789 1.002674 -0.460763
v 0.656178 0.877674 -0.480767
v 0.750000 0.377674 -0.502121
v 0.750000 0.877674 -0.502121
v 0.750000 0.752674 -0.502121
v 0.532789 0.002674 -0.460763
v 0.532789 0.127674 -0.460763
v 0.750000 0.127674 -0.502121
v 0.625000 0.127674 -0.502121
v 0.250000 0.752674 -0.502121
v 0.509075 0.252674 -0.469033
v 0.384791 0.252674 -0.482389
v 0.384791 0.377674 -0.482389
v 0.509075 0.877674 -0.469033
v 0.250000 0.377674 -0.502121
v 0.250000 0.252674 -0.502121
v 0.375000 0.377674 -0.502121
v 0.625000 1.002674 -0.502121
v 0.500000 1.002674 -0.502121
v 0.500000 0.252674 -0.502121
v 0.500000 0.377674 -0.502121
v 0.250000 0.002674 -0.502121
v 0.250000 0.127674 -0.502121
v 0.384791 0.127674 -0.482389
v 0.750000 0.502674 -0.502121
v 0.750000 0.627674 -0.502121
v 0.625000 0.627674 -0.502121
v 0.384791 0.002674 -0.482389
v 0.509075 0.127674 -0.469033
v 0.509075 0.002674 -0.469033
v 0.750000 1.002674 -0.502121
v 0.625000 0.252674 -0.502121
v 0.625000 0.377674 -0.502121
v 0.532789 0.252674 -0.460763
v 0.384791 1.002674 -0.482389
v 0.509075 1.002674 -0.469033
v 0.500000 0.627674 -0.502121
v 0.500000 0.502674 -0.502121
v 0.500000 0.127674 -0.502121
v 0.375000 0.127674 -0.502121
v 0.500000 0.002674 -0.502121
v 0.656179 0.002674 -0.480767
v 0.625000 0.002674 -0.502121
v 0.750000 0.002674 -0.502121
v 0.509075 0.377674 -0.469033
v 0.532789 0.627674 -0.460763
v 0.656178 1.002674 -0.480767
v 0.500000 0.877674 -0.502121
v 0.250000 1.002674 -0.502121
v 0.250000 0.877674 -0.502121
v 0.375000 0.877674 -0.502121
v 0.625000 0.502674 -0.502121
v 0.375000 1.002674 -0.502121
v 0.375000 0.252674 -0.502121
v 0.375000 0.002674 -0.502121
v 0.656178 0.502674 -0.480767
vt 0.250000 0.500000
vt 0.250000 0.625000
vt 0.125000 0.625000
vt 0.250000 1.000000
vt 0.250000 0.875000
vt 0.375000 0.875000
vt 0.625000 1.000000
vt 0.500000 1.000000
vt 0.625000 0.875000
vt 0.250000 0.375000
vt 0.375000 0.375000
vt 0.500000 0.250000
vt 0.500000 0.375000
vt 0.500000 0.000000
vt 0.500000 0.125000
vt 0.375000 0.125000
vt 0.375000 0.000000
vt 0.750000 0.875000
vt 0.750000 0.750000
vt 0.875000 0.875000
vt 0.375000 0.250000
vt 0.250000 0.000000
vt 0.250000 0.125000
vt 0.125000 0.125000
vt 0.125000 1.000000
vt 0.000000 1.000000
vt 0.125000 0.875000
vt 0.625000 0.750000
vt 0.125000 0.750000
vt 0.250000 0.750000
vt 1.000000 1.000000
vt 0.875000 1.000000
vt 0.875000 0.750000
vt 0.875000 0.625000
vt 0.250000 0.250000
vt 0.750000 0.000000
vt 0.750000 0.125000
vt 0.625000 0.125000
vt 0.125000 0.000000
vt 0.625000 0.250000
vt 0.750000 0.250000
vt 0.625000 0.375000
vt 0.000000 0.625000
vt 0.000000 0.500000
vt 0.750000 0.500000
vt 0.625000 0.500000
vt 1.000000 0.250000
vt 0.875000 0.250000
vt 0.875000 0.125000
vt 0.500000 0.750000
vt 0.375000 0.750000
vt 0.375000 0.625000
vt 1.000000 0.125000
vt 0.875000 0.000000
vt 1.000000 0.000000
vt 0.000000 0.750000
vt 0.750000 0.625000
vt 0.625000 0.625000
vt 0.750000 1.000000
vt 0.000000 0.125000
vt 0.000000 0.000000
vt 0.375000 0.500000
vt 0.500000 0.500000
vt 0.875000 0.500000
vt 0.875000 0.375000
vt 1.000000 0.500000
vt 1.000000 0.875000
vt 1.000000 0.625000
vt 1.000000 0.750000
vt 0.625000 0.000000
vt 0.375000 1.000000
vt 0.000000 0.875000
vt 0.125000 0.500000
vt 0.000000 0.250000
vt 0.125000 0.250000
vt 0.125000 0.375000
vt 0.500000 0.625000
vt 0.000000 0.375000
vt 0.750000 0.375000
vt 1.000000 0.375000
vt 0.500000 0.875000
vn 0.0000 -0.0000 1.0000
vn -0.1600 -0.0000 -0.9871
vn -0.1911 -0.0000 -0.9816
vn 0.9974 0.0000 0.0726
vn 0.1068 0.0000 -0.9943
vn 0.1259 0.0000 -0.9920
vn -0.9937 -0.0000 0.1117
usemtl Default_OBJ
s 1
f 1/1/1 2/2/1 3/3/1
f 4/4/2 5/5/3 6/6/3
f 7/7/2 8/8/2 9/9/3
f 1/1/1 10/10/1 11/11/1
f 12/12/4 13/13/1 11/11/1
f 14/14/5 15/15/6 16/16/6
f 17/17/5 14/14/5 16/16/6
f 18/18/3 19/19/7 20/20/3
f 12/12/4 21/21/4 16/16/6
f 22/22/5 23/23/6 24/24/6
f 25/25/2 26/26/2 27/27/3
f 28/28/7 19/19/7 9/9/3
f 29/29/7 30/30/7 27/27/3
f 31/31/2 32/32/2 20/20/3
f 33/33/7 19/19/7 34/34/1
f 23/23/6 35/35/4 24/24/6
f 36/36/5 37/37/6 38/38/6
f 39/39/5 22/22/5 24/24/6
f 40/40/4 41/41/4 42/42/1
f 43/43/1 44/44/1 3/3/1
f 45/45/1 46/46/1 42/42/1
f 47/47/4 48/48/4 49/49/6
f 50/50/7 51/51/7 52/52/1
f 53/53/6 47/47/4 49/49/6
f 54/54/5 55/55/5 49/49/6
f 50/50/7 28/28/7 9/9/3
f 12/12/4 40/40/4 42/42/1
f 56/56/7 29/29/7 27/27/3
f 45/45/1 57/57/1 58/58/1
f 59/59/2 18/18/3 20/20/3
f 60/60/6 61/61/5 24/24/6
f 62/62/1 63/63/1 52/52/1
f 46/46/1 63/63/1 42/42/1
f 64/64/1 45/45/1 65/65/1
f 66/66/1 64/64/1 65/65/1
f 67/67/3 31/31/2 20/20/3
f 68/68/1 69/69/7 34/34/1
f 57/57/1 19/19/7 58/58/1
f 70/70/5 36/36/5 38/38/6
f 37/37/6 41/41/4 38/38/6
f 71/71/2 4/4/2 6/6/3
f 5/5/3 30/30/7 6/6/3
f 13/13/1 63/63/1 11/11/1
f 15/15/6 12/12/4 16/16/6
f 51/51/7 30/30/7 52/52/1
f 32/32/2 59/59/2 20/20/3
f 1/1/1 62/62/1 52/52/1
f 72/72/3 56/56/7 27/27/3
f 44/44/1 73/73/1 3/3/1
f 48/48/4 41/41/4 49/49/6
f 74/74/4 75/75/4 76/76/1
f 77/77/1 63/63/1 58/58/1
f 10/10/1 35/35/4 11/11/1
f 78/78/1 74/74/4 76/76/1
f 44/44/1 78/78/1 76/76/1
f 73/73/1 1/1/1 3/3/1
f 79/79/1 41/41/4 65/65/1
f 2/2/1 30/30/7 3/3/1
f 80/80/1 66/66/1 65/65/1
f 75/75/4 35/35/4 76/76/1
f 69/69/7 67/67/3 20/20/3
f 21/21/4 35/35/4 16/16/6
f 19/19/7 33/33/7 20/20/3
f 33/33/7 69/69/7 20/20/3
f 69/69/7 33/33/7 34/34/1
f 35/35/4 10/10/1 76/76/1
f 10/10/1 1/1/1 76/76/1
f 1/1/1 73/73/1 76/76/1
f 73/73/1 44/44/1 76/76/1
f 63/63/1 62/62/1 11/11/1
f 62/62/1 1/1/1 11/11/1
f 41/41/4 48/48/4 65/65/1
f 48/48/4 47/47/4 65/65/1
f 30/30/7 2/2/1 52/52/1
f 2/2/1 1/1/1 52/52/1
f 35/35/4 75/75/4 24/24/6
f 75/75/4 74/74/4 24/24/6
f 30/30/7 29/29/7 3/3/1
f 29/29/7 56/56/7 3/3/1
f 41/41/4 37/37/6 49/49/6
f 37/37/6 36/36/5 49/49/6
f 35/35/4 23/23/6 16/16/6
f 23/23/6 22/22/5 16/16/6
f 30/30/7 5/5/3 27/27/3
f 5/5/3 4/4/2 27/27/3
f 19/19/7 18/18/3 9/9/3
f 18/18/3 59/59/2 9/9/3
f 19/19/7 28/28/7 58/58/1
f 28/28/7 50/50/7 58/58/1
f 35/35/4 21/21/4 11/11/1
f 21/21/4 12/12/4 11/11/1
f 41/41/4 79/79/1 42/42/1
f 79/79/1 45/45/1 42/42/1
f 45/45/1 79/79/1 65/65/1
f 74/74/4 60/60/6 24/24/6
f 47/47/4 80/80/1 65/65/1
f 56/56/7 43/43/1 3/3/1
f 66/66/1 68/68/1 34/34/1
f 63/63/1 46/46/1 58/58/1
f 46/46/1 45/45/1 58/58/1
f 45/45/1 64/64/1 34/34/1
f 64/64/1 66/66/1 34/34/1
f 19/19/7 57/57/1 34/34/1
f 57/57/1 45/45/1 34/34/1
f 63/63/1 13/13/1 42/42/1
f 13/13/1 12/12/4 42/42/1
f 12/12/4 15/15/6 38/38/6
f 15/15/6 14/14/5 38/38/6
f 41/41/4 40/40/4 38/38/6
f 40/40/4 12/12/4 38/38/6
f 63/63/1 77/77/1 52/52/1
f 77/77/1 50/50/7 52/52/1
f 50/50/7 77/77/1 58/58/1
f 26/26/2 72/72/3 27/27/3
f 55/55/5 53/53/6 49/49/6
f 36/36/5 54/54/5 49/49/6
f 14/14/5 70/70/5 38/38/6
f 22/22/5 17/17/5 16/16/6
f 61/61/5 39/39/5 24/24/6
f 4/4/2 25/25/2 27/27/3
f 8/8/2 71/71/2 6/6/3
f 59/59/2 7/7/2 9/9/3
f 30/30/7 51/51/7 6/6/3
f 51/51/7 50/50/7 6/6/3
f 50/50/7 81/81/3 6/6/3
f 81/81/3 8/8/2 6/6/3
f 8/8/2 81/81/3 9/9/3
f 81/81/3 50/50/7 9/9/3
