# Blender v2.82 (sub 7) OBJ File: 'triangle_fold.blend'
# www.blender.org
mtllib triangle_fold.mtl
v 0.683713 0.611314 0.176556
v 0.621213 0.548814 0.264944
v 0.683713 0.611314 0.353333
v 0.433713 0.361314 0.530109
v 0.496213 0.423814 0.441721
v 0.433713 0.361314 0.353333
v 0.246213 0.173814 0.264944
v 0.308713 0.236314 0.353333
v 0.308713 0.236314 0.176556
v 0.746213 0.673814 0.088168
v 0.626337 0.626337 0.001631
v 0.626337 0.626337 0.178408
v 0.563837 0.563837 0.090019
v 0.751337 0.751337 0.355184
v 0.688837 0.688837 0.266796
v 0.751337 0.751337 0.178408
v 0.813837 0.813837 0.266796
v 0.246213 0.173814 0.088168
v 0.251337 0.251337 0.001631
v 0.126337 0.126337 0.001631
v 0.688837 0.688837 0.090019
v 0.876337 0.876337 0.178408
v 0.813837 0.813837 0.090019
v 0.876337 0.876337 0.001631
v 0.496213 0.423814 0.618498
v 0.558711 0.486313 0.706883
v 0.558713 0.486314 0.530109
v 0.371213 0.298814 0.088168
v 0.621213 0.548814 0.441721
v 0.558713 0.486314 0.353333
v 0.001337 0.001337 0.001631
v 0.121213 0.048815 0.088168
v 0.188837 0.188837 0.090019
v 0.251337 0.251337 0.178408
v 0.751337 0.751337 0.001631
v 0.626337 0.626337 0.531961
v 0.563837 0.563837 0.443573
v 0.626337 0.626337 0.355184
v 0.938837 0.938837 0.090019
v 0.563837 0.563837 0.266796
v 0.501337 0.501337 0.355184
v 0.501337 0.501337 0.178408
v 0.746211 0.673813 0.441718
v 0.808711 0.736313 0.353330
v 0.376337 0.376337 0.178408
v 0.438837 0.438837 0.090019
v 0.376337 0.376337 0.531961
v 0.438837 0.438837 0.443573
v 0.501337 0.501337 0.531961
v 0.433713 0.361314 0.176556
v 0.496213 0.423814 0.264944
v 0.558713 0.486314 0.176556
v 0.438837 0.438837 0.620349
v 0.563837 0.563837 0.620349
v 0.501337 0.501337 0.708738
v 0.683711 0.611313 0.530107
v 0.313837 0.313837 0.090019
v 0.376337 0.376337 0.001631
v 0.183713 0.111315 0.176556
v 0.996211 0.923812 0.088165
v 1.001335 1.001335 0.001634
v 0.621213 0.548814 0.088168
v 0.501337 0.501337 0.001631
v 0.313837 0.313837 0.266796
v 0.376337 0.376337 0.355184
v 0.251337 0.251337 0.355184
v 0.063837 0.063837 0.090019
v 0.188837 0.188837 0.266796
v 0.126337 0.126337 0.178408
v 0.688837 0.688837 0.443573
v 0.371213 0.298814 0.441721
v 0.621211 0.548813 0.618495
v 0.746213 0.673814 0.264944
v 0.933711 0.861313 0.176553
v 0.871213 0.798814 0.088168
v 0.808713 0.736314 0.176556
v 0.496213 0.423814 0.088168
v 0.871211 0.798813 0.264942
v 0.438837 0.438837 0.266796
v 0.313837 0.313837 0.443573
v 0.371213 0.298814 0.264944
vt 0.250000 0.500000
vt 0.250000 0.625000
vt 0.125000 0.625000
vt 0.250000 1.000000
vt 0.250000 0.875000
vt 0.375000 0.875000
vt 0.625000 1.000000
vt 0.500000 1.000000
vt 0.625000 0.875000
vt 0.250000 0.375000
vt 0.375000 0.375000
vt 0.500000 0.250000
vt 0.500000 0.375000
vt 0.500000 0.000000
vt 0.500000 0.125000
vt 0.375000 0.125000
vt 0.375000 0.000000
vt 0.750000 0.875000
vt 0.750000 0.750000
vt 0.875000 0.875000
vt 0.375000 0.250000
vt 0.250000 0.000000
vt 0.250000 0.125000
vt 0.125000 0.125000
vt 0.125000 1.000000
vt 0.000000 1.000000
vt 0.125000 0.875000
vt 0.625000 0.750000
vt 0.125000 0.750000
vt 0.250000 0.750000
vt 1.000000 1.000000
vt 0.875000 1.000000
vt 0.875000 0.750000
vt 0.875000 0.625000
vt 0.250000 0.250000
vt 0.750000 0.000000
vt 0.750000 0.125000
vt 0.625000 0.125000
vt 0.125000 0.000000
vt 0.625000 0.250000
vt 0.750000 0.250000
vt 0.625000 0.375000
vt 0.000000 0.625000
vt 0.000000 0.500000
vt 0.750000 0.500000
vt 0.625000 0.500000
vt 1.000000 0.250000
vt 0.875000 0.250000
vt 0.875000 0.125000
vt 0.500000 0.750000
vt 0.375000 0.750000
vt 0.375000 0.625000
vt 1.000000 0.125000
vt 0.875000 0.000000
vt 1.000000 0.000000
vt 0.000000 0.750000
vt 0.750000 0.625000
vt 0.625000 0.625000
vt 0.750000 1.000000
vt 0.000000 0.125000
vt 0.000000 0.000000
vt 0.375000 0.500000
vt 0.500000 0.500000
vt 0.875000 0.500000
vt 0.875000 0.375000
vt 1.000000 0.500000
vt 1.000000 0.875000
vt 1.000000 0.625000
vt 1.000000 0.750000
vt 0.625000 0.000000
vt 0.375000 1.000000
vt 0.000000 0.875000
vt 0.125000 0.500000
vt 0.000000 0.250000
vt 0.125000 0.250000
vt 0.125000 0.375000
vt 0.500000 0.625000
vt 0.000000 0.375000
vt 0.750000 0.375000
vt 1.000000 0.375000
vt 0.500000 0.875000
vn -0.7071 0.7071 -0.0000
vn -0.5001 0.8333 0.2356
vn 0.7071 -0.7071 0.0000
vn -0.6086 0.6086 0.5092
vn -0.8560 0.4092 0.3159
usemtl Default_OBJ.001
s off
f 1/1/1 2/2/1 3/3/1
f 4/4/1 5/5/1 6/6/1
f 7/7/1 8/8/1 9/9/1
f 1/1/2 10/10/2 11/11/2
f 12/12/3 13/13/3 11/11/3
f 14/14/3 15/15/3 16/16/3
f 17/17/3 14/14/3 16/16/3
f 18/18/4 19/19/4 20/20/4
f 12/12/3 21/21/3 16/16/3
f 22/22/3 23/23/3 24/24/3
f 25/25/1 26/26/1 27/27/1
f 28/28/2 19/19/2 9/9/2
f 29/29/1 30/30/1 27/27/1
f 31/31/4 32/32/4 20/20/4
f 33/33/3 19/19/3 34/34/3
f 23/23/3 35/35/3 24/24/3
f 36/36/3 37/37/3 38/38/3
f 39/39/3 22/22/3 24/24/3
f 40/40/3 41/41/3 42/42/3
f 43/43/1 44/44/1 3/3/1
f 45/45/3 46/46/3 42/42/3
f 47/47/3 48/48/3 49/49/3
f 50/50/1 51/51/1 52/52/1
f 53/53/3 47/47/3 49/49/3
f 54/54/3 55/55/3 49/49/3
f 50/50/1 28/28/1 9/9/1
f 12/12/3 40/40/3 42/42/3
f 56/56/1 29/29/1 27/27/1
f 45/45/3 57/57/3 58/58/3
f 59/59/2 18/18/2 20/20/2
f 60/60/4 61/61/4 24/24/4
f 62/62/2 63/63/2 52/52/2
f 46/46/3 63/63/3 42/42/3
f 64/64/3 45/45/3 65/65/3
f 66/66/3 64/64/3 65/65/3
f 67/67/3 31/31/3 20/20/3
f 68/68/3 69/69/3 34/34/3
f 57/57/3 19/19/3 58/58/3
f 70/70/3 36/36/3 38/38/3
f 37/37/3 41/41/3 38/38/3
f 71/71/1 4/4/1 6/6/1
f 5/5/1 30/30/1 6/6/1
f 13/13/3 63/63/3 11/11/3
f 15/15/3 12/12/3 16/16/3
f 51/51/1 30/30/1 52/52/1
f 32/32/5 59/59/5 20/20/5
f 1/1/1 62/62/1 52/52/1
f 72/72/1 56/56/1 27/27/1
f 44/44/1 73/73/1 3/3/1
f 48/48/3 41/41/3 49/49/3
f 74/74/1 75/75/1 76/76/1
f 77/77/4 63/63/4 58/58/4
f 10/10/4 35/35/4 11/11/4
f 78/78/1 74/74/1 76/76/1
f 44/44/1 78/78/1 76/76/1
f 73/73/1 1/1/1 3/3/1
f 79/79/3 41/41/3 65/65/3
f 2/2/1 30/30/1 3/3/1
f 80/80/3 66/66/3 65/65/3
f 75/75/2 35/35/2 76/76/2
f 69/69/3 67/67/3 20/20/3
f 21/21/3 35/35/3 16/16/3
f 19/19/3 33/33/3 20/20/3
f 33/33/3 69/69/3 20/20/3
f 69/69/3 33/33/3 34/34/3
f 35/35/5 10/10/5 76/76/5
f 10/10/1 1/1/1 76/76/1
f 1/1/1 73/73/1 76/76/1
f 73/73/1 44/44/1 76/76/1
f 63/63/4 62/62/4 11/11/4
f 62/62/5 1/1/5 11/11/5
f 41/41/3 48/48/3 65/65/3
f 48/48/3 47/47/3 65/65/3
f 30/30/1 2/2/1 52/52/1
f 2/2/1 1/1/1 52/52/1
f 35/35/4 75/75/4 24/24/4
f 75/75/5 74/74/5 24/24/5
f 30/30/1 29/29/1 3/3/1
f 29/29/1 56/56/1 3/3/1
f 41/41/3 37/37/3 49/49/3
f 37/37/3 36/36/3 49/49/3
f 35/35/3 23/23/3 16/16/3
f 23/23/3 22/22/3 16/16/3
f 30/30/1 5/5/1 27/27/1
f 5/5/1 4/4/1 27/27/1
f 19/19/5 18/18/5 9/9/5
f 18/18/1 59/59/1 9/9/1
f 19/19/4 28/28/4 58/58/4
f 28/28/5 50/50/5 58/58/5
f 35/35/3 21/21/3 11/11/3
f 21/21/3 12/12/3 11/11/3
f 41/41/3 79/79/3 42/42/3
f 79/79/3 45/45/3 42/42/3
f 45/45/3 79/79/3 65/65/3
f 74/74/2 60/60/2 24/24/2
f 47/47/3 80/80/3 65/65/3
f 56/56/1 43/43/1 3/3/1
f 66/66/3 68/68/3 34/34/3
f 63/63/3 46/46/3 58/58/3
f 46/46/3 45/45/3 58/58/3
f 45/45/3 64/64/3 34/34/3
f 64/64/3 66/66/3 34/34/3
f 19/19/3 57/57/3 34/34/3
f 57/57/3 45/45/3 34/34/3
f 63/63/3 13/13/3 42/42/3
f 13/13/3 12/12/3 42/42/3
f 12/12/3 15/15/3 38/38/3
f 15/15/3 14/14/3 38/38/3
f 41/41/3 40/40/3 38/38/3
f 40/40/3 12/12/3 38/38/3
f 63/63/5 77/77/5 52/52/5
f 77/77/1 50/50/1 52/52/1
f 50/50/2 77/77/2 58/58/2
f 26/26/1 72/72/1 27/27/1
f 55/55/3 53/53/3 49/49/3
f 36/36/3 54/54/3 49/49/3
f 14/14/3 70/70/3 38/38/3
f 22/22/3 17/17/3 16/16/3
f 61/61/3 39/39/3 24/24/3
f 4/4/1 25/25/1 27/27/1
f 8/8/1 71/71/1 6/6/1
f 59/59/1 7/7/1 9/9/1
f 30/30/1 51/51/1 6/6/1
f 51/51/1 50/50/1 6/6/1
f 50/50/1 81/81/1 6/6/1
f 81/81/1 8/8/1 6/6/1
f 8/8/1 81/81/1 9/9/1
f 81/81/1 50/50/1 9/9/1
